<svg width="396" height="396" viewBox="0 0 396 396" fill="none" xmlns="http://www.w3.org/2000/svg">
<path fill-rule="evenodd" clip-rule="evenodd" d="M149.819 0.645356C135.997 3.16751 124.864 10.6801 119.867 20.8574C116.456 27.8045 116.504 27.4159 116.324 49.7189L116.164 69.5343L112.439 71.9035C103.848 77.367 92.4793 87.366 85.3204 95.7547C65.9087 118.5 55.4515 143.72 53.4149 172.703C52.8446 180.814 52.8321 254.198 53.3994 261.872C56.0838 298.191 72.938 332.497 100.376 357.492C124.21 379.202 152.003 391.764 184.456 395.494C191.101 396.258 207.641 396.136 214.624 395.272C246.788 391.292 273.603 378.799 296.937 356.925C320.758 334.593 336.073 306.395 341.31 275.226C343.032 264.98 343.129 261.319 342.962 212.98C342.804 167.359 342.782 166.349 341.85 160.857C338.453 140.839 331.321 123.02 319.931 106.094C310.221 91.6663 294.119 76.2103 282.302 69.9741C280.21 68.8709 278.499 67.9219 278.499 67.8659C278.499 67.8099 280.8 67.8461 283.611 67.9465C289.412 68.1537 291.366 67.7195 292.56 65.9585C293.303 64.863 293.355 63.0473 293.467 34.5154C293.598 1.2411 293.673 2.27108 291.016 0.700063C289.857 0.0151409 285.123 -0.0318127 221.405 0.0116949C165.707 0.0496025 152.44 0.167203 149.819 0.645356ZM283.13 34.0885L283.241 58.0888L215.341 58.2408C153.615 58.3791 147.108 58.4592 143.783 59.1235C138.965 60.085 131.969 62.1419 128.91 63.4954C127.562 64.0924 126.435 64.5805 126.406 64.5805C126.376 64.5805 126.406 57.3599 126.472 48.5343C126.589 32.9547 126.623 32.3878 127.638 29.042C130.265 20.3823 137.047 14.3016 147.441 11.2871C148.625 10.9437 151.917 10.5168 154.758 10.3381C157.599 10.1597 187.619 10.0305 221.471 10.0508L283.019 10.0882L283.13 34.0885ZM254.612 69.0402C269.48 71.9061 282.807 79.6487 296.594 93.4316C303.582 100.418 307.122 104.671 312.02 111.967C321.691 126.372 328.29 142.235 331.401 158.556C333.41 169.095 333.592 173.786 333.587 215.087C333.582 261.68 333.326 266.529 330.092 281.407C323.371 312.316 304.516 340.932 278.069 360.358C264.798 370.106 248.375 377.928 233.092 381.781C220.509 384.953 211.213 386.108 198.444 386.087C167.823 386.037 140.417 376.792 116.251 358.358C90.8584 338.989 71.9705 309.203 65.7206 278.672C63.1218 265.976 63.1696 266.975 62.9802 221.38C62.8033 178.719 62.9823 171.328 64.4152 162.161C69.0941 132.226 86.1816 104.065 111.419 84.6986C113.24 83.3008 115.07 81.9753 115.484 81.7535C116.198 81.3714 116.237 82.8765 116.237 110.601V139.852L114.522 140.082C108.605 140.876 103.111 147.021 100.774 155.46C98.6689 163.065 98.647 176.382 100.728 183.688C103.97 195.067 111.864 202.36 122.205 203.531L124.845 203.83L124.844 221.113L124.843 238.396L121.779 240.119C117.883 242.31 117.098 243.295 117.098 245.991C117.098 247.77 117.318 248.329 118.563 249.702C119.368 250.591 121.111 251.9 122.435 252.611L124.842 253.903L124.844 277.571C124.845 303.269 125.194 310.486 126.831 318.734C130.688 338.156 141.299 353.963 156.91 363.54C169.22 371.092 184.526 375.662 197.868 375.769C204.501 375.822 204.739 375.649 206.399 369.592C208.513 361.88 211.887 356.517 219.305 349.081C222.153 346.225 227.97 341.091 232.231 337.671C246.807 325.973 254.368 318.757 260.873 310.334C276.153 290.55 282.521 270.547 283.431 239.472C283.567 234.852 283.795 228.427 283.939 225.194L284.201 219.316L287.003 219.015C293.659 218.302 298.76 215.8 303.744 210.804C306.518 208.023 307.619 206.529 308.998 203.672C311.991 197.469 313.217 190.583 312.786 182.396C312.158 170.448 306.834 163.382 296.551 160.849C292.913 159.953 281.169 159.473 279.873 160.167C277.861 161.245 277.71 162.01 277.22 173.565C276.531 189.829 275.13 213.663 274.575 218.58C273.65 226.769 271.608 232.567 267.993 237.268C261.35 245.909 253.183 248.282 244.167 244.19C242.612 243.484 238.516 241 235.064 238.669C231.612 236.338 227.141 233.499 225.129 232.358C217.122 227.82 207.55 224.569 197.583 223C189.798 221.776 174.976 221.68 167.025 222.803C157.048 224.213 146.51 227.454 138.08 231.707L134.744 233.389V191.416V149.442H155.853H176.963L176.736 150.842C176.611 151.612 176.212 156.7 175.848 162.15C175.485 167.599 174.697 179.326 174.096 188.211C173.495 197.096 172.891 207.079 172.753 210.396L172.502 216.426L173.81 217.826L175.117 219.226H191.051H206.986L208.296 218.124C210.768 216.042 210.358 211.635 207.592 210.562C206.84 210.271 202.042 210.124 194.463 210.161L182.519 210.219V209.029C182.519 206.66 185.565 159.381 186.186 152.119C186.935 143.356 187.659 139.552 189.631 134.03C193.469 123.283 199.625 116.265 209.36 111.537C218.486 107.106 229.492 105.443 240.635 106.813C256.486 108.762 267.85 117.072 270.949 128.978C271.655 131.693 271.852 137.181 271.256 137.55C271.06 137.672 269.365 136.747 267.49 135.495C263.027 132.516 257.503 129.576 253.751 128.183C248.151 126.104 245.162 125.599 238.687 125.638C231.361 125.682 227.623 126.529 221.741 129.48C214.831 132.946 208.933 139.528 206.363 146.642C205.45 149.167 205.386 149.233 203.589 149.48C199.908 149.987 198.17 153.819 200.147 157.065C200.733 158.028 201.428 158.524 202.458 158.718C203.867 158.983 203.941 159.091 204.197 161.272C205.415 171.643 212.895 181.495 222.616 185.534C235.301 190.804 248.409 187.997 256.322 178.318C260.455 173.262 262.823 167.101 263.3 160.168L263.554 156.464L265.109 155.925C265.964 155.629 267.965 154.625 269.557 153.694C282.377 146.196 284.762 129.311 275.03 114.945C266.336 102.112 248.253 95.206 227.712 96.8722C201.818 98.9722 184.396 113.207 178.38 137.179L177.68 139.965H152.012H126.345L126.421 107.765C126.464 90.0548 126.514 75.4466 126.532 75.3019C126.655 74.3555 137.52 70.4131 143.013 69.3224C148.416 68.2489 154.453 68.1347 201.672 68.2127C246.235 68.2859 251.094 68.3622 254.612 69.0402ZM248.156 136.477C249.813 136.973 252.773 138.148 254.733 139.089C258.838 141.059 264.89 145.145 264.408 145.621C263.63 146.386 256.169 148.161 251.92 148.59C249.206 148.864 240.749 149.003 231.449 148.926L215.604 148.796L217.753 145.733C221.24 140.764 225.336 137.841 231.37 136.015C234.943 134.934 243.814 135.178 248.156 136.477ZM124.845 171.897V194.352L123.022 194.06C118.381 193.317 114.036 190.184 111.937 186.065C109.918 182.105 109.257 178.187 109.247 170.119C109.23 157.032 111.272 151.482 116.667 149.948C117.496 149.712 119.675 149.502 121.509 149.481L124.845 149.442V171.897ZM253.536 159.759C253.536 166.322 248.524 174.179 242.656 176.815C238.857 178.521 232.96 178.805 228.634 177.49C221.142 175.213 215.105 168.291 214.079 160.802L213.823 158.928L231.635 158.811C241.432 158.746 250.367 158.647 251.492 158.591C253.492 158.49 253.536 158.516 253.536 159.759ZM292.255 169.909C297.386 170.484 300.416 172.734 302.21 177.299C303.078 179.509 303.194 180.537 303.173 185.842C303.137 195.162 301.572 199.954 297.13 204.348C293.809 207.634 289.436 209.733 285.89 209.745L284.457 209.749L284.715 207.057C285.154 202.502 286.201 184.938 286.482 177.442C286.629 173.533 286.827 170.083 286.922 169.775C287.037 169.405 287.571 169.289 288.501 169.43C289.273 169.548 290.963 169.764 292.255 169.909ZM195.001 231.951C203.103 233.135 210.849 235.558 218.028 239.153C222.031 241.158 224.235 242.529 233.012 248.475C234.862 249.728 237.159 251.2 238.118 251.745L239.862 252.736L238.458 253.045C233.729 254.084 219.017 254.074 211.674 253.025C205.482 252.142 202.541 251.187 194.187 247.347C185.813 243.499 185.275 243.469 179.225 246.497C174.137 249.044 168.469 251.262 164.012 252.451C160.949 253.267 159.268 253.425 153.682 253.417C147.661 253.409 146.633 253.293 143.137 252.231C141.007 251.584 138.295 250.51 137.111 249.845C135.011 248.665 134.956 248.583 134.83 246.443C134.703 244.297 134.739 244.226 136.446 243.147C146.348 236.89 162.219 232.182 176.924 231.138C180.767 230.866 190.596 231.308 195.001 231.951ZM273.309 250.673C271.622 272.29 264.6 290.592 251.943 306.361C245.638 314.216 240.158 319.391 227.131 329.787C213.486 340.676 205.679 348.781 201.574 356.318C200.961 357.444 200.333 358.365 200.178 358.365C199.771 358.365 194.397 348.721 193.021 345.521L191.851 342.801L194.179 340.805C201.407 334.606 210.248 325.104 215.516 317.872C224.948 304.924 232.297 286.229 235.344 267.425L236.105 262.735L237.759 262.734C240.301 262.734 247.463 261.155 251.68 259.667C259.029 257.072 265.203 253.385 270.537 248.405C272.194 246.858 273.583 245.622 273.623 245.657C273.663 245.692 273.521 247.949 273.309 250.673ZM191.457 256.434C193.998 257.708 197.19 259.1 198.552 259.529C199.913 259.956 201.027 260.541 201.027 260.827C201.027 261.955 199.637 268.714 198.819 271.565C195.911 281.696 191.601 289.351 185.452 295.303C182.893 297.78 178.626 301.215 178.414 300.969C178.217 300.74 176.505 289.08 176.089 285.134C175.342 278.045 174.683 259.635 175.159 259.159C175.702 258.616 185.557 254.175 186.293 254.143C186.592 254.129 188.916 255.161 191.457 256.434ZM141.968 261.869L143.811 262.344L143.753 287.631C143.716 303.861 143.867 314.384 144.175 317.011C145.506 328.372 147.456 336.709 150.509 344.094C151.329 346.077 151.929 347.771 151.842 347.857C151.756 347.943 150.002 345.739 147.945 342.959C142.75 335.936 139.168 328.508 137.095 320.457C135.146 312.887 135.078 311.8 134.875 285.05L134.679 259.336L137.402 260.366C138.899 260.932 140.954 261.608 141.968 261.869ZM165.475 267.58C166.817 295.71 171.891 319.608 181.319 342.211C183.879 348.348 188.37 357.021 191.533 361.937C193.026 364.257 194.175 366.217 194.086 366.293C193.721 366.605 187.41 365.674 184.137 364.825C177.362 363.067 173.352 360.833 168.695 356.22C162.498 350.081 157.84 340.272 155.445 328.317C153.482 318.514 153.053 312.229 153.07 293.534C153.079 283.82 153.24 273.025 153.428 269.544L153.769 263.216L156.2 262.961C158.101 262.761 163.1 261.925 164.92 261.502C165.064 261.469 165.314 264.204 165.475 267.58ZM219.895 263.006L226.052 263.3L225.765 265.494C225.176 269.983 223.28 278.611 221.831 283.396C216.522 300.93 208.899 313.489 195.282 327.133L187.974 334.454L186.092 328.856C184.136 323.038 180.798 311.858 180.798 311.125C180.798 310.894 182.449 309.582 184.467 308.21C188.807 305.26 194.821 299.475 197.935 295.257C200.676 291.544 205.279 282.367 207.01 277.165C208.18 273.65 209.501 268.253 210.263 263.868C210.55 262.225 210.575 262.206 212.146 262.457C213.022 262.597 216.509 262.844 219.895 263.006Z" fill="white"/>
</svg>
