<svg width="38" height="52" viewBox="0 0 38 52" fill="none" xmlns="http://www.w3.org/2000/svg">
<mask id="path-1-outside-1_31_2165" maskUnits="userSpaceOnUse" x="-0.880066" y="-0.599976" width="39" height="53" fill="black">
<rect fill="white" x="-0.880066" y="-0.599976" width="39" height="53"/>
<path fill-rule="evenodd" clip-rule="evenodd" d="M12.6405 0.483464C10.8534 0.809561 9.414 1.78089 8.76792 3.09675C8.32691 3.99494 8.33303 3.94471 8.30977 6.82833L8.28912 9.39032L7.80749 9.69664C6.6968 10.403 5.22685 11.6958 4.30125 12.7804C1.79146 15.7213 0.439426 18.982 0.176098 22.7294C0.102364 23.778 0.100751 33.2661 0.174095 34.2583C0.521174 38.9541 2.70031 43.3896 6.24789 46.6212C9.32936 49.4282 12.9228 51.0524 17.1188 51.5346C17.9779 51.6333 20.1165 51.6176 21.0193 51.5059C25.1779 50.9913 28.6448 49.3761 31.6618 46.5478C34.7417 43.6605 36.7219 40.0147 37.3989 35.9848C37.6215 34.6601 37.6341 34.1867 37.6124 27.9369C37.592 22.0383 37.5892 21.9077 37.4688 21.1977C37.0295 18.6095 36.1074 16.3057 34.6347 14.1173C33.3793 12.2518 31.2975 10.2535 29.7695 9.44718C29.4991 9.30455 29.2779 9.18185 29.2779 9.17461C29.2779 9.16737 29.5753 9.17205 29.9388 9.18502C30.6889 9.21181 30.9415 9.15567 31.0959 8.92799C31.1919 8.78636 31.1987 8.5516 31.2132 4.86262C31.23 0.56049 31.2397 0.693659 30.8962 0.490538C30.7464 0.401982 30.1343 0.395911 21.896 0.401536C14.6947 0.406438 12.9794 0.421643 12.6405 0.483464ZM29.8766 4.80743L29.891 7.91049L21.112 7.93015C13.1313 7.94803 12.29 7.95839 11.86 8.04427C11.2371 8.16858 10.3326 8.43453 9.93715 8.60952C9.76286 8.68672 9.61712 8.74982 9.61328 8.74982C9.60944 8.74982 9.61328 7.81626 9.6219 6.67517C9.63704 4.66084 9.64143 4.58754 9.77265 4.15496C10.1123 3.03531 10.9891 2.24912 12.333 1.85936C12.4861 1.81497 12.9118 1.75978 13.2791 1.73667C13.6463 1.71361 17.5278 1.6969 21.9045 1.69952L29.8623 1.70436L29.8766 4.80743ZM26.1895 9.32644C28.1118 9.69698 29.8348 10.698 31.6174 12.4801C32.521 13.3833 32.9787 13.9333 33.6119 14.8766C34.8623 16.739 35.7155 18.79 36.1177 20.9002C36.3775 22.2628 36.401 22.8693 36.4004 28.2092C36.3997 34.2334 36.3667 34.8604 35.9485 36.784C35.0796 40.7803 32.6417 44.4802 29.2223 46.9917C27.5064 48.2521 25.3831 49.2634 23.407 49.7616C21.7802 50.1717 20.5782 50.321 18.9274 50.3184C14.9683 50.3119 11.4248 49.1165 8.30042 46.7332C5.01728 44.2289 2.57521 40.3778 1.76714 36.4304C1.43114 34.7888 1.43731 34.918 1.41283 29.0229C1.38996 23.5071 1.41311 22.5515 1.59836 21.3663C2.20331 17.4959 4.41261 13.8549 7.6756 11.351C7.9111 11.1702 8.14761 10.9989 8.20114 10.9702C8.29346 10.9208 8.29853 11.1154 8.29853 14.6999V18.4819L8.07688 18.5116C7.31177 18.6143 6.60148 19.4089 6.29936 20.4999C6.02713 21.4832 6.02429 23.205 6.29341 24.1496C6.71255 25.6208 7.7332 26.5638 9.0702 26.7152L9.41149 26.7538L9.41138 28.9883L9.41122 31.2229L9.01506 31.4457C8.51138 31.7289 8.40982 31.8563 8.40982 32.2049C8.40982 32.4349 8.43837 32.5072 8.59925 32.6847C8.70337 32.7997 8.92869 32.9689 9.09986 33.0608L9.41111 33.2279L9.41133 36.288C9.4115 39.6105 9.45657 40.5436 9.66831 41.6101C10.1669 44.1211 11.5389 46.1649 13.5573 47.4032C15.1488 48.3796 17.1279 48.9704 18.8528 48.9843C19.7104 48.9911 19.7413 48.9688 19.9559 48.1857C20.2291 47.1885 20.6654 46.4952 21.6245 45.5337C21.9927 45.1645 22.7448 44.5007 23.2957 44.0585C25.1803 42.5461 26.1579 41.613 26.999 40.524C28.9746 37.9661 29.7979 35.3798 29.9156 31.3621C29.9331 30.7648 29.9626 29.934 29.9812 29.516L30.0151 28.756L30.3774 28.7171C31.238 28.6249 31.8975 28.3014 32.5419 27.6555C32.9005 27.296 33.0428 27.1028 33.2211 26.7333C33.6081 25.9314 33.7667 25.041 33.711 23.9825C33.6298 22.4378 32.9414 21.5242 31.6119 21.1967C31.1416 21.0808 29.6231 21.0187 29.4555 21.1085C29.1954 21.2478 29.1758 21.3467 29.1125 22.8407C29.0234 24.9436 28.8423 28.0252 28.7705 28.6609C28.6509 29.7196 28.3869 30.4693 27.9196 31.0771C27.0606 32.1943 26.0048 32.5011 24.839 31.9721C24.638 31.8808 24.1083 31.5596 23.662 31.2583C23.2157 30.9569 22.6377 30.5897 22.3776 30.4423C21.3423 29.8556 20.1047 29.4352 18.8161 29.2324C17.8094 29.074 15.8931 29.0616 14.865 29.2069C13.5751 29.3891 12.2127 29.8082 11.1227 30.358L10.6914 30.5756V25.1487V19.7218H13.4207H16.15L16.1206 19.9028C16.1044 20.0024 16.0528 20.6603 16.0059 21.3648C15.959 22.0694 15.857 23.5857 15.7793 24.7344C15.7016 25.8831 15.6235 27.1738 15.6057 27.6027L15.5733 28.3824L15.7423 28.5634L15.9113 28.7444H17.9715H20.0318L20.2011 28.6019C20.5207 28.3327 20.4677 27.7629 20.1102 27.6242C20.0129 27.5865 19.3925 27.5676 18.4126 27.5723L16.8684 27.5799V27.426C16.8684 27.1196 17.2622 21.0069 17.3424 20.0679C17.4393 18.9349 17.5329 18.4431 17.7879 17.7291C18.2841 16.3396 19.0801 15.4322 20.3387 14.821C21.5186 14.2481 22.9417 14.0331 24.3823 14.2102C26.4317 14.4622 27.901 15.5366 28.3017 17.076C28.393 17.427 28.4185 18.1366 28.3414 18.1843C28.3161 18.2 28.097 18.0804 27.8545 17.9186C27.2774 17.5334 26.5633 17.1533 26.0782 16.9732C25.3541 16.7044 24.9677 16.6391 24.1305 16.6442C23.1832 16.6499 22.7 16.7594 21.9394 17.1409C21.0461 17.589 20.2835 18.44 19.9512 19.3598C19.8332 19.6862 19.8249 19.6947 19.5925 19.7268C19.1166 19.7923 18.8919 20.2877 19.1475 20.7074C19.2234 20.8319 19.3132 20.8961 19.4463 20.9211C19.6285 20.9553 19.6381 20.9693 19.6712 21.2514C19.8286 22.5923 20.7957 23.8661 22.0526 24.3882C23.6927 25.0696 25.3875 24.7068 26.4105 23.4553C26.9449 22.8015 27.2511 22.005 27.3127 21.1087L27.3456 20.6297L27.5466 20.5601C27.6572 20.5218 27.916 20.3919 28.1217 20.2716C29.7793 19.3022 30.0877 17.119 28.8293 15.2616C27.7053 13.6024 25.3673 12.7095 22.7114 12.9249C19.3636 13.1964 17.111 15.0369 16.3331 18.1363L16.2427 18.4965H12.9241H9.60543L9.61533 14.3333C9.62079 12.0435 9.62724 10.1547 9.62969 10.136C9.64555 10.0137 11.0503 9.50394 11.7605 9.36292C12.4591 9.22412 13.2397 9.20936 19.3447 9.21945C25.1064 9.22891 25.7346 9.23877 26.1895 9.32644ZM25.3547 18.0456C25.569 18.1097 25.9517 18.2616 26.2051 18.3833C26.7358 18.638 27.5184 19.1662 27.456 19.2277C27.3555 19.3268 26.3907 19.5562 25.8414 19.6116C25.4905 19.6471 24.397 19.6651 23.1947 19.6551L21.1459 19.6383L21.4239 19.2422C21.8747 18.5998 22.4043 18.2219 23.1845 17.9858C23.6464 17.846 24.7933 17.8776 25.3547 18.0456ZM9.41149 22.6251V25.5284L9.17582 25.4906C8.57582 25.3946 8.014 24.9894 7.74255 24.4569C7.48155 23.9449 7.39613 23.4384 7.39474 22.3952C7.39257 20.7032 7.65657 19.9856 8.35418 19.7872C8.4613 19.7568 8.74305 19.7296 8.98022 19.7268L9.41149 19.7218V22.6251ZM26.0503 21.0558C26.0503 21.9043 25.4024 22.9202 24.6437 23.2609C24.1524 23.4816 23.3901 23.5183 22.8307 23.3482C21.862 23.0538 21.0815 22.1589 20.9489 21.1905L20.9157 20.9483L23.2187 20.9332C24.4853 20.9248 25.6407 20.912 25.786 20.9047C26.0446 20.8917 26.0503 20.895 26.0503 21.0558ZM31.0564 22.368C31.7198 22.4425 32.1116 22.7333 32.3436 23.3235C32.4558 23.6092 32.4708 23.7422 32.4681 24.4281C32.4634 25.6331 32.261 26.2527 31.6868 26.8207C31.2574 27.2456 30.692 27.517 30.2334 27.5185L30.0482 27.5191L30.0816 27.1711C30.1383 26.5821 30.2737 24.3112 30.3101 23.342C30.329 22.8366 30.3546 22.3905 30.3669 22.3507C30.3818 22.3029 30.4508 22.2879 30.571 22.3062C30.6709 22.3214 30.8894 22.3493 31.0564 22.368ZM18.4822 30.3897C19.5297 30.5427 20.5312 30.856 21.4594 31.3208C21.977 31.5801 22.262 31.7573 23.3967 32.5261C23.6359 32.6881 23.933 32.8784 24.057 32.9489L24.2824 33.077L24.1009 33.1169C23.4894 33.2513 21.5873 33.25 20.6379 33.1144C19.8373 33.0002 19.4571 32.8767 18.3769 32.3803C17.2942 31.8828 17.2247 31.8788 16.4425 32.2704C15.7847 32.5997 15.0518 32.8865 14.4755 33.0401C14.0794 33.1457 13.8621 33.166 13.1399 33.165C12.3615 33.164 12.2286 33.1491 11.7765 33.0117C11.5011 32.928 11.1505 32.7892 10.9975 32.7032C10.726 32.5507 10.7188 32.54 10.7025 32.2633C10.6861 31.9859 10.6907 31.9767 10.9114 31.8372C12.1917 31.0282 14.2437 30.4195 16.1449 30.2846C16.6419 30.2493 17.9127 30.3065 18.4822 30.3897ZM28.6068 32.8103C28.3887 35.6052 27.4808 37.9715 25.8444 40.0104C25.0293 41.026 24.3206 41.695 22.6363 43.0392C20.8722 44.447 19.8627 45.4949 19.332 46.4695C19.2527 46.615 19.1715 46.734 19.1516 46.734C19.0989 46.734 18.404 45.4871 18.2262 45.0735L18.0749 44.7218L18.3759 44.4637C19.3104 43.6623 20.4535 42.4336 21.1346 41.4987C22.3542 39.8246 23.3043 37.4074 23.6983 34.9763L23.7966 34.3698L24.0104 34.3697C24.3392 34.3696 25.2651 34.1656 25.8104 33.9731C26.7606 33.6376 27.5588 33.1609 28.2484 32.5171C28.4627 32.3171 28.6422 32.1572 28.6474 32.1617C28.6526 32.1663 28.6343 32.4581 28.6068 32.8103ZM18.024 33.5552C18.3525 33.7199 18.7653 33.8999 18.9413 33.9552C19.1173 34.0106 19.2612 34.0861 19.2612 34.1231C19.2612 34.2689 19.0816 35.1429 18.9758 35.5114C18.5998 36.8214 18.0425 37.8111 17.2476 38.5806C16.9167 38.9009 16.365 39.345 16.3377 39.3132C16.3121 39.2836 16.0907 37.776 16.037 37.2658C15.9404 36.3493 15.8552 33.9691 15.9167 33.9075C15.9869 33.8372 17.2612 33.2631 17.3562 33.2589C17.395 33.2572 17.6955 33.3905 18.024 33.5552ZM11.6253 34.2579L11.8636 34.3193L11.8562 37.5887C11.8514 39.6871 11.8709 41.0477 11.9107 41.3873C12.0829 42.8562 12.335 43.9342 12.7296 44.8889C12.8356 45.1454 12.9133 45.3643 12.9021 45.3755C12.8909 45.3867 12.6642 45.1017 12.3982 44.7422C11.7265 43.8342 11.2634 42.8738 10.9954 41.8329C10.7433 40.8541 10.7345 40.7136 10.7083 37.255L10.683 33.9304L11.035 34.0635C11.2286 34.1366 11.4942 34.2241 11.6253 34.2579ZM14.6647 34.9962C14.8382 38.6332 15.4942 41.7231 16.7132 44.6455C17.0442 45.4389 17.6248 46.5603 18.0338 47.1959C18.2268 47.4958 18.3754 47.7493 18.3639 47.7591C18.3167 47.7995 17.5008 47.6791 17.0775 47.5693C16.2015 47.3421 15.6832 47.0532 15.0811 46.4567C14.2797 45.663 13.6775 44.3948 13.3679 42.8491C13.1141 41.5816 13.0586 40.769 13.0608 38.3519C13.062 37.096 13.0828 35.7002 13.107 35.2502L13.1512 34.432L13.4655 34.399C13.7113 34.3731 14.3576 34.2651 14.5929 34.2104C14.6116 34.2062 14.6439 34.5598 14.6647 34.9962ZM21.7008 34.4049L22.4969 34.4429L22.4597 34.7265C22.3836 35.3069 22.1384 36.4225 21.9511 37.0412C21.2648 39.3082 20.2791 40.932 18.5185 42.696L17.5737 43.6426L17.3303 42.9187C17.0774 42.1666 16.6458 40.7211 16.6458 40.6263C16.6458 40.5964 16.8593 40.4268 17.1202 40.2494C17.6813 39.868 18.4589 39.12 18.8615 38.5747C19.2159 38.0946 19.8111 36.908 20.0349 36.2355C20.1862 35.781 20.3569 35.0832 20.4555 34.5163C20.4925 34.3038 20.4957 34.3014 20.6989 34.3339C20.8121 34.352 21.263 34.3839 21.7008 34.4049Z"/>
</mask>
<path fill-rule="evenodd" clip-rule="evenodd" d="M12.6405 0.483464C10.8534 0.809561 9.414 1.78089 8.76792 3.09675C8.32691 3.99494 8.33303 3.94471 8.30977 6.82833L8.28912 9.39032L7.80749 9.69664C6.6968 10.403 5.22685 11.6958 4.30125 12.7804C1.79146 15.7213 0.439426 18.982 0.176098 22.7294C0.102364 23.778 0.100751 33.2661 0.174095 34.2583C0.521174 38.9541 2.70031 43.3896 6.24789 46.6212C9.32936 49.4282 12.9228 51.0524 17.1188 51.5346C17.9779 51.6333 20.1165 51.6176 21.0193 51.5059C25.1779 50.9913 28.6448 49.3761 31.6618 46.5478C34.7417 43.6605 36.7219 40.0147 37.3989 35.9848C37.6215 34.6601 37.6341 34.1867 37.6124 27.9369C37.592 22.0383 37.5892 21.9077 37.4688 21.1977C37.0295 18.6095 36.1074 16.3057 34.6347 14.1173C33.3793 12.2518 31.2975 10.2535 29.7695 9.44718C29.4991 9.30455 29.2779 9.18185 29.2779 9.17461C29.2779 9.16737 29.5753 9.17205 29.9388 9.18502C30.6889 9.21181 30.9415 9.15567 31.0959 8.92799C31.1919 8.78636 31.1987 8.5516 31.2132 4.86262C31.23 0.56049 31.2397 0.693659 30.8962 0.490538C30.7464 0.401982 30.1343 0.395911 21.896 0.401536C14.6947 0.406438 12.9794 0.421643 12.6405 0.483464ZM29.8766 4.80743L29.891 7.91049L21.112 7.93015C13.1313 7.94803 12.29 7.95839 11.86 8.04427C11.2371 8.16858 10.3326 8.43453 9.93715 8.60952C9.76286 8.68672 9.61712 8.74982 9.61328 8.74982C9.60944 8.74982 9.61328 7.81626 9.6219 6.67517C9.63704 4.66084 9.64143 4.58754 9.77265 4.15496C10.1123 3.03531 10.9891 2.24912 12.333 1.85936C12.4861 1.81497 12.9118 1.75978 13.2791 1.73667C13.6463 1.71361 17.5278 1.6969 21.9045 1.69952L29.8623 1.70436L29.8766 4.80743ZM26.1895 9.32644C28.1118 9.69698 29.8348 10.698 31.6174 12.4801C32.521 13.3833 32.9787 13.9333 33.6119 14.8766C34.8623 16.739 35.7155 18.79 36.1177 20.9002C36.3775 22.2628 36.401 22.8693 36.4004 28.2092C36.3997 34.2334 36.3667 34.8604 35.9485 36.784C35.0796 40.7803 32.6417 44.4802 29.2223 46.9917C27.5064 48.2521 25.3831 49.2634 23.407 49.7616C21.7802 50.1717 20.5782 50.321 18.9274 50.3184C14.9683 50.3119 11.4248 49.1165 8.30042 46.7332C5.01728 44.2289 2.57521 40.3778 1.76714 36.4304C1.43114 34.7888 1.43731 34.918 1.41283 29.0229C1.38996 23.5071 1.41311 22.5515 1.59836 21.3663C2.20331 17.4959 4.41261 13.8549 7.6756 11.351C7.9111 11.1702 8.14761 10.9989 8.20114 10.9702C8.29346 10.9208 8.29853 11.1154 8.29853 14.6999V18.4819L8.07688 18.5116C7.31177 18.6143 6.60148 19.4089 6.29936 20.4999C6.02713 21.4832 6.02429 23.205 6.29341 24.1496C6.71255 25.6208 7.7332 26.5638 9.0702 26.7152L9.41149 26.7538L9.41138 28.9883L9.41122 31.2229L9.01506 31.4457C8.51138 31.7289 8.40982 31.8563 8.40982 32.2049C8.40982 32.4349 8.43837 32.5072 8.59925 32.6847C8.70337 32.7997 8.92869 32.9689 9.09986 33.0608L9.41111 33.2279L9.41133 36.288C9.4115 39.6105 9.45657 40.5436 9.66831 41.6101C10.1669 44.1211 11.5389 46.1649 13.5573 47.4032C15.1488 48.3796 17.1279 48.9704 18.8528 48.9843C19.7104 48.9911 19.7413 48.9688 19.9559 48.1857C20.2291 47.1885 20.6654 46.4952 21.6245 45.5337C21.9927 45.1645 22.7448 44.5007 23.2957 44.0585C25.1803 42.5461 26.1579 41.613 26.999 40.524C28.9746 37.9661 29.7979 35.3798 29.9156 31.3621C29.9331 30.7648 29.9626 29.934 29.9812 29.516L30.0151 28.756L30.3774 28.7171C31.238 28.6249 31.8975 28.3014 32.5419 27.6555C32.9005 27.296 33.0428 27.1028 33.2211 26.7333C33.6081 25.9314 33.7667 25.041 33.711 23.9825C33.6298 22.4378 32.9414 21.5242 31.6119 21.1967C31.1416 21.0808 29.6231 21.0187 29.4555 21.1085C29.1954 21.2478 29.1758 21.3467 29.1125 22.8407C29.0234 24.9436 28.8423 28.0252 28.7705 28.6609C28.6509 29.7196 28.3869 30.4693 27.9196 31.0771C27.0606 32.1943 26.0048 32.5011 24.839 31.9721C24.638 31.8808 24.1083 31.5596 23.662 31.2583C23.2157 30.9569 22.6377 30.5897 22.3776 30.4423C21.3423 29.8556 20.1047 29.4352 18.8161 29.2324C17.8094 29.074 15.8931 29.0616 14.865 29.2069C13.5751 29.3891 12.2127 29.8082 11.1227 30.358L10.6914 30.5756V25.1487V19.7218H13.4207H16.15L16.1206 19.9028C16.1044 20.0024 16.0528 20.6603 16.0059 21.3648C15.959 22.0694 15.857 23.5857 15.7793 24.7344C15.7016 25.8831 15.6235 27.1738 15.6057 27.6027L15.5733 28.3824L15.7423 28.5634L15.9113 28.7444H17.9715H20.0318L20.2011 28.6019C20.5207 28.3327 20.4677 27.7629 20.1102 27.6242C20.0129 27.5865 19.3925 27.5676 18.4126 27.5723L16.8684 27.5799V27.426C16.8684 27.1196 17.2622 21.0069 17.3424 20.0679C17.4393 18.9349 17.5329 18.4431 17.7879 17.7291C18.2841 16.3396 19.0801 15.4322 20.3387 14.821C21.5186 14.2481 22.9417 14.0331 24.3823 14.2102C26.4317 14.4622 27.901 15.5366 28.3017 17.076C28.393 17.427 28.4185 18.1366 28.3414 18.1843C28.3161 18.2 28.097 18.0804 27.8545 17.9186C27.2774 17.5334 26.5633 17.1533 26.0782 16.9732C25.3541 16.7044 24.9677 16.6391 24.1305 16.6442C23.1832 16.6499 22.7 16.7594 21.9394 17.1409C21.0461 17.589 20.2835 18.44 19.9512 19.3598C19.8332 19.6862 19.8249 19.6947 19.5925 19.7268C19.1166 19.7923 18.8919 20.2877 19.1475 20.7074C19.2234 20.8319 19.3132 20.8961 19.4463 20.9211C19.6285 20.9553 19.6381 20.9693 19.6712 21.2514C19.8286 22.5923 20.7957 23.8661 22.0526 24.3882C23.6927 25.0696 25.3875 24.7068 26.4105 23.4553C26.9449 22.8015 27.2511 22.005 27.3127 21.1087L27.3456 20.6297L27.5466 20.5601C27.6572 20.5218 27.916 20.3919 28.1217 20.2716C29.7793 19.3022 30.0877 17.119 28.8293 15.2616C27.7053 13.6024 25.3673 12.7095 22.7114 12.9249C19.3636 13.1964 17.111 15.0369 16.3331 18.1363L16.2427 18.4965H12.9241H9.60543L9.61533 14.3333C9.62079 12.0435 9.62724 10.1547 9.62969 10.136C9.64555 10.0137 11.0503 9.50394 11.7605 9.36292C12.4591 9.22412 13.2397 9.20936 19.3447 9.21945C25.1064 9.22891 25.7346 9.23877 26.1895 9.32644ZM25.3547 18.0456C25.569 18.1097 25.9517 18.2616 26.2051 18.3833C26.7358 18.638 27.5184 19.1662 27.456 19.2277C27.3555 19.3268 26.3907 19.5562 25.8414 19.6116C25.4905 19.6471 24.397 19.6651 23.1947 19.6551L21.1459 19.6383L21.4239 19.2422C21.8747 18.5998 22.4043 18.2219 23.1845 17.9858C23.6464 17.846 24.7933 17.8776 25.3547 18.0456ZM9.41149 22.6251V25.5284L9.17582 25.4906C8.57582 25.3946 8.014 24.9894 7.74255 24.4569C7.48155 23.9449 7.39613 23.4384 7.39474 22.3952C7.39257 20.7032 7.65657 19.9856 8.35418 19.7872C8.4613 19.7568 8.74305 19.7296 8.98022 19.7268L9.41149 19.7218V22.6251ZM26.0503 21.0558C26.0503 21.9043 25.4024 22.9202 24.6437 23.2609C24.1524 23.4816 23.3901 23.5183 22.8307 23.3482C21.862 23.0538 21.0815 22.1589 20.9489 21.1905L20.9157 20.9483L23.2187 20.9332C24.4853 20.9248 25.6407 20.912 25.786 20.9047C26.0446 20.8917 26.0503 20.895 26.0503 21.0558ZM31.0564 22.368C31.7198 22.4425 32.1116 22.7333 32.3436 23.3235C32.4558 23.6092 32.4708 23.7422 32.4681 24.4281C32.4634 25.6331 32.261 26.2527 31.6868 26.8207C31.2574 27.2456 30.692 27.517 30.2334 27.5185L30.0482 27.5191L30.0816 27.1711C30.1383 26.5821 30.2737 24.3112 30.3101 23.342C30.329 22.8366 30.3546 22.3905 30.3669 22.3507C30.3818 22.3029 30.4508 22.2879 30.571 22.3062C30.6709 22.3214 30.8894 22.3493 31.0564 22.368ZM18.4822 30.3897C19.5297 30.5427 20.5312 30.856 21.4594 31.3208C21.977 31.5801 22.262 31.7573 23.3967 32.5261C23.6359 32.6881 23.933 32.8784 24.057 32.9489L24.2824 33.077L24.1009 33.1169C23.4894 33.2513 21.5873 33.25 20.6379 33.1144C19.8373 33.0002 19.4571 32.8767 18.3769 32.3803C17.2942 31.8828 17.2247 31.8788 16.4425 32.2704C15.7847 32.5997 15.0518 32.8865 14.4755 33.0401C14.0794 33.1457 13.8621 33.166 13.1399 33.165C12.3615 33.164 12.2286 33.1491 11.7765 33.0117C11.5011 32.928 11.1505 32.7892 10.9975 32.7032C10.726 32.5507 10.7188 32.54 10.7025 32.2633C10.6861 31.9859 10.6907 31.9767 10.9114 31.8372C12.1917 31.0282 14.2437 30.4195 16.1449 30.2846C16.6419 30.2493 17.9127 30.3065 18.4822 30.3897ZM28.6068 32.8103C28.3887 35.6052 27.4808 37.9715 25.8444 40.0104C25.0293 41.026 24.3206 41.695 22.6363 43.0392C20.8722 44.447 19.8627 45.4949 19.332 46.4695C19.2527 46.615 19.1715 46.734 19.1516 46.734C19.0989 46.734 18.404 45.4871 18.2262 45.0735L18.0749 44.7218L18.3759 44.4637C19.3104 43.6623 20.4535 42.4336 21.1346 41.4987C22.3542 39.8246 23.3043 37.4074 23.6983 34.9763L23.7966 34.3698L24.0104 34.3697C24.3392 34.3696 25.2651 34.1656 25.8104 33.9731C26.7606 33.6376 27.5588 33.1609 28.2484 32.5171C28.4627 32.3171 28.6422 32.1572 28.6474 32.1617C28.6526 32.1663 28.6343 32.4581 28.6068 32.8103ZM18.024 33.5552C18.3525 33.7199 18.7653 33.8999 18.9413 33.9552C19.1173 34.0106 19.2612 34.0861 19.2612 34.1231C19.2612 34.2689 19.0816 35.1429 18.9758 35.5114C18.5998 36.8214 18.0425 37.8111 17.2476 38.5806C16.9167 38.9009 16.365 39.345 16.3377 39.3132C16.3121 39.2836 16.0907 37.776 16.037 37.2658C15.9404 36.3493 15.8552 33.9691 15.9167 33.9075C15.9869 33.8372 17.2612 33.2631 17.3562 33.2589C17.395 33.2572 17.6955 33.3905 18.024 33.5552ZM11.6253 34.2579L11.8636 34.3193L11.8562 37.5887C11.8514 39.6871 11.8709 41.0477 11.9107 41.3873C12.0829 42.8562 12.335 43.9342 12.7296 44.8889C12.8356 45.1454 12.9133 45.3643 12.9021 45.3755C12.8909 45.3867 12.6642 45.1017 12.3982 44.7422C11.7265 43.8342 11.2634 42.8738 10.9954 41.8329C10.7433 40.8541 10.7345 40.7136 10.7083 37.255L10.683 33.9304L11.035 34.0635C11.2286 34.1366 11.4942 34.2241 11.6253 34.2579ZM14.6647 34.9962C14.8382 38.6332 15.4942 41.7231 16.7132 44.6455C17.0442 45.4389 17.6248 46.5603 18.0338 47.1959C18.2268 47.4958 18.3754 47.7493 18.3639 47.7591C18.3167 47.7995 17.5008 47.6791 17.0775 47.5693C16.2015 47.3421 15.6832 47.0532 15.0811 46.4567C14.2797 45.663 13.6775 44.3948 13.3679 42.8491C13.1141 41.5816 13.0586 40.769 13.0608 38.3519C13.062 37.096 13.0828 35.7002 13.107 35.2502L13.1512 34.432L13.4655 34.399C13.7113 34.3731 14.3576 34.2651 14.5929 34.2104C14.6116 34.2062 14.6439 34.5598 14.6647 34.9962ZM21.7008 34.4049L22.4969 34.4429L22.4597 34.7265C22.3836 35.3069 22.1384 36.4225 21.9511 37.0412C21.2648 39.3082 20.2791 40.932 18.5185 42.696L17.5737 43.6426L17.3303 42.9187C17.0774 42.1666 16.6458 40.7211 16.6458 40.6263C16.6458 40.5964 16.8593 40.4268 17.1202 40.2494C17.6813 39.868 18.4589 39.12 18.8615 38.5747C19.2159 38.0946 19.8111 36.908 20.0349 36.2355C20.1862 35.781 20.3569 35.0832 20.4555 34.5163C20.4925 34.3038 20.4957 34.3014 20.6989 34.3339C20.8121 34.352 21.263 34.3839 21.7008 34.4049Z" fill="#3C2C25"/>
<path fill-rule="evenodd" clip-rule="evenodd" d="M12.6405 0.483464C10.8534 0.809561 9.414 1.78089 8.76792 3.09675C8.32691 3.99494 8.33303 3.94471 8.30977 6.82833L8.28912 9.39032L7.80749 9.69664C6.6968 10.403 5.22685 11.6958 4.30125 12.7804C1.79146 15.7213 0.439426 18.982 0.176098 22.7294C0.102364 23.778 0.100751 33.2661 0.174095 34.2583C0.521174 38.9541 2.70031 43.3896 6.24789 46.6212C9.32936 49.4282 12.9228 51.0524 17.1188 51.5346C17.9779 51.6333 20.1165 51.6176 21.0193 51.5059C25.1779 50.9913 28.6448 49.3761 31.6618 46.5478C34.7417 43.6605 36.7219 40.0147 37.3989 35.9848C37.6215 34.6601 37.6341 34.1867 37.6124 27.9369C37.592 22.0383 37.5892 21.9077 37.4688 21.1977C37.0295 18.6095 36.1074 16.3057 34.6347 14.1173C33.3793 12.2518 31.2975 10.2535 29.7695 9.44718C29.4991 9.30455 29.2779 9.18185 29.2779 9.17461C29.2779 9.16737 29.5753 9.17205 29.9388 9.18502C30.6889 9.21181 30.9415 9.15567 31.0959 8.92799C31.1919 8.78636 31.1987 8.5516 31.2132 4.86262C31.23 0.56049 31.2397 0.693659 30.8962 0.490538C30.7464 0.401982 30.1343 0.395911 21.896 0.401536C14.6947 0.406438 12.9794 0.421643 12.6405 0.483464ZM29.8766 4.80743L29.891 7.91049L21.112 7.93015C13.1313 7.94803 12.29 7.95839 11.86 8.04427C11.2371 8.16858 10.3326 8.43453 9.93715 8.60952C9.76286 8.68672 9.61712 8.74982 9.61328 8.74982C9.60944 8.74982 9.61328 7.81626 9.6219 6.67517C9.63704 4.66084 9.64143 4.58754 9.77265 4.15496C10.1123 3.03531 10.9891 2.24912 12.333 1.85936C12.4861 1.81497 12.9118 1.75978 13.2791 1.73667C13.6463 1.71361 17.5278 1.6969 21.9045 1.69952L29.8623 1.70436L29.8766 4.80743ZM26.1895 9.32644C28.1118 9.69698 29.8348 10.698 31.6174 12.4801C32.521 13.3833 32.9787 13.9333 33.6119 14.8766C34.8623 16.739 35.7155 18.79 36.1177 20.9002C36.3775 22.2628 36.401 22.8693 36.4004 28.2092C36.3997 34.2334 36.3667 34.8604 35.9485 36.784C35.0796 40.7803 32.6417 44.4802 29.2223 46.9917C27.5064 48.2521 25.3831 49.2634 23.407 49.7616C21.7802 50.1717 20.5782 50.321 18.9274 50.3184C14.9683 50.3119 11.4248 49.1165 8.30042 46.7332C5.01728 44.2289 2.57521 40.3778 1.76714 36.4304C1.43114 34.7888 1.43731 34.918 1.41283 29.0229C1.38996 23.5071 1.41311 22.5515 1.59836 21.3663C2.20331 17.4959 4.41261 13.8549 7.6756 11.351C7.9111 11.1702 8.14761 10.9989 8.20114 10.9702C8.29346 10.9208 8.29853 11.1154 8.29853 14.6999V18.4819L8.07688 18.5116C7.31177 18.6143 6.60148 19.4089 6.29936 20.4999C6.02713 21.4832 6.02429 23.205 6.29341 24.1496C6.71255 25.6208 7.7332 26.5638 9.0702 26.7152L9.41149 26.7538L9.41138 28.9883L9.41122 31.2229L9.01506 31.4457C8.51138 31.7289 8.40982 31.8563 8.40982 32.2049C8.40982 32.4349 8.43837 32.5072 8.59925 32.6847C8.70337 32.7997 8.92869 32.9689 9.09986 33.0608L9.41111 33.2279L9.41133 36.288C9.4115 39.6105 9.45657 40.5436 9.66831 41.6101C10.1669 44.1211 11.5389 46.1649 13.5573 47.4032C15.1488 48.3796 17.1279 48.9704 18.8528 48.9843C19.7104 48.9911 19.7413 48.9688 19.9559 48.1857C20.2291 47.1885 20.6654 46.4952 21.6245 45.5337C21.9927 45.1645 22.7448 44.5007 23.2957 44.0585C25.1803 42.5461 26.1579 41.613 26.999 40.524C28.9746 37.9661 29.7979 35.3798 29.9156 31.3621C29.9331 30.7648 29.9626 29.934 29.9812 29.516L30.0151 28.756L30.3774 28.7171C31.238 28.6249 31.8975 28.3014 32.5419 27.6555C32.9005 27.296 33.0428 27.1028 33.2211 26.7333C33.6081 25.9314 33.7667 25.041 33.711 23.9825C33.6298 22.4378 32.9414 21.5242 31.6119 21.1967C31.1416 21.0808 29.6231 21.0187 29.4555 21.1085C29.1954 21.2478 29.1758 21.3467 29.1125 22.8407C29.0234 24.9436 28.8423 28.0252 28.7705 28.6609C28.6509 29.7196 28.3869 30.4693 27.9196 31.0771C27.0606 32.1943 26.0048 32.5011 24.839 31.9721C24.638 31.8808 24.1083 31.5596 23.662 31.2583C23.2157 30.9569 22.6377 30.5897 22.3776 30.4423C21.3423 29.8556 20.1047 29.4352 18.8161 29.2324C17.8094 29.074 15.8931 29.0616 14.865 29.2069C13.5751 29.3891 12.2127 29.8082 11.1227 30.358L10.6914 30.5756V25.1487V19.7218H13.4207H16.15L16.1206 19.9028C16.1044 20.0024 16.0528 20.6603 16.0059 21.3648C15.959 22.0694 15.857 23.5857 15.7793 24.7344C15.7016 25.8831 15.6235 27.1738 15.6057 27.6027L15.5733 28.3824L15.7423 28.5634L15.9113 28.7444H17.9715H20.0318L20.2011 28.6019C20.5207 28.3327 20.4677 27.7629 20.1102 27.6242C20.0129 27.5865 19.3925 27.5676 18.4126 27.5723L16.8684 27.5799V27.426C16.8684 27.1196 17.2622 21.0069 17.3424 20.0679C17.4393 18.9349 17.5329 18.4431 17.7879 17.7291C18.2841 16.3396 19.0801 15.4322 20.3387 14.821C21.5186 14.2481 22.9417 14.0331 24.3823 14.2102C26.4317 14.4622 27.901 15.5366 28.3017 17.076C28.393 17.427 28.4185 18.1366 28.3414 18.1843C28.3161 18.2 28.097 18.0804 27.8545 17.9186C27.2774 17.5334 26.5633 17.1533 26.0782 16.9732C25.3541 16.7044 24.9677 16.6391 24.1305 16.6442C23.1832 16.6499 22.7 16.7594 21.9394 17.1409C21.0461 17.589 20.2835 18.44 19.9512 19.3598C19.8332 19.6862 19.8249 19.6947 19.5925 19.7268C19.1166 19.7923 18.8919 20.2877 19.1475 20.7074C19.2234 20.8319 19.3132 20.8961 19.4463 20.9211C19.6285 20.9553 19.6381 20.9693 19.6712 21.2514C19.8286 22.5923 20.7957 23.8661 22.0526 24.3882C23.6927 25.0696 25.3875 24.7068 26.4105 23.4553C26.9449 22.8015 27.2511 22.005 27.3127 21.1087L27.3456 20.6297L27.5466 20.5601C27.6572 20.5218 27.916 20.3919 28.1217 20.2716C29.7793 19.3022 30.0877 17.119 28.8293 15.2616C27.7053 13.6024 25.3673 12.7095 22.7114 12.9249C19.3636 13.1964 17.111 15.0369 16.3331 18.1363L16.2427 18.4965H12.9241H9.60543L9.61533 14.3333C9.62079 12.0435 9.62724 10.1547 9.62969 10.136C9.64555 10.0137 11.0503 9.50394 11.7605 9.36292C12.4591 9.22412 13.2397 9.20936 19.3447 9.21945C25.1064 9.22891 25.7346 9.23877 26.1895 9.32644ZM25.3547 18.0456C25.569 18.1097 25.9517 18.2616 26.2051 18.3833C26.7358 18.638 27.5184 19.1662 27.456 19.2277C27.3555 19.3268 26.3907 19.5562 25.8414 19.6116C25.4905 19.6471 24.397 19.6651 23.1947 19.6551L21.1459 19.6383L21.4239 19.2422C21.8747 18.5998 22.4043 18.2219 23.1845 17.9858C23.6464 17.846 24.7933 17.8776 25.3547 18.0456ZM9.41149 22.6251V25.5284L9.17582 25.4906C8.57582 25.3946 8.014 24.9894 7.74255 24.4569C7.48155 23.9449 7.39613 23.4384 7.39474 22.3952C7.39257 20.7032 7.65657 19.9856 8.35418 19.7872C8.4613 19.7568 8.74305 19.7296 8.98022 19.7268L9.41149 19.7218V22.6251ZM26.0503 21.0558C26.0503 21.9043 25.4024 22.9202 24.6437 23.2609C24.1524 23.4816 23.3901 23.5183 22.8307 23.3482C21.862 23.0538 21.0815 22.1589 20.9489 21.1905L20.9157 20.9483L23.2187 20.9332C24.4853 20.9248 25.6407 20.912 25.786 20.9047C26.0446 20.8917 26.0503 20.895 26.0503 21.0558ZM31.0564 22.368C31.7198 22.4425 32.1116 22.7333 32.3436 23.3235C32.4558 23.6092 32.4708 23.7422 32.4681 24.4281C32.4634 25.6331 32.261 26.2527 31.6868 26.8207C31.2574 27.2456 30.692 27.517 30.2334 27.5185L30.0482 27.5191L30.0816 27.1711C30.1383 26.5821 30.2737 24.3112 30.3101 23.342C30.329 22.8366 30.3546 22.3905 30.3669 22.3507C30.3818 22.3029 30.4508 22.2879 30.571 22.3062C30.6709 22.3214 30.8894 22.3493 31.0564 22.368ZM18.4822 30.3897C19.5297 30.5427 20.5312 30.856 21.4594 31.3208C21.977 31.5801 22.262 31.7573 23.3967 32.5261C23.6359 32.6881 23.933 32.8784 24.057 32.9489L24.2824 33.077L24.1009 33.1169C23.4894 33.2513 21.5873 33.25 20.6379 33.1144C19.8373 33.0002 19.4571 32.8767 18.3769 32.3803C17.2942 31.8828 17.2247 31.8788 16.4425 32.2704C15.7847 32.5997 15.0518 32.8865 14.4755 33.0401C14.0794 33.1457 13.8621 33.166 13.1399 33.165C12.3615 33.164 12.2286 33.1491 11.7765 33.0117C11.5011 32.928 11.1505 32.7892 10.9975 32.7032C10.726 32.5507 10.7188 32.54 10.7025 32.2633C10.6861 31.9859 10.6907 31.9767 10.9114 31.8372C12.1917 31.0282 14.2437 30.4195 16.1449 30.2846C16.6419 30.2493 17.9127 30.3065 18.4822 30.3897ZM28.6068 32.8103C28.3887 35.6052 27.4808 37.9715 25.8444 40.0104C25.0293 41.026 24.3206 41.695 22.6363 43.0392C20.8722 44.447 19.8627 45.4949 19.332 46.4695C19.2527 46.615 19.1715 46.734 19.1516 46.734C19.0989 46.734 18.404 45.4871 18.2262 45.0735L18.0749 44.7218L18.3759 44.4637C19.3104 43.6623 20.4535 42.4336 21.1346 41.4987C22.3542 39.8246 23.3043 37.4074 23.6983 34.9763L23.7966 34.3698L24.0104 34.3697C24.3392 34.3696 25.2651 34.1656 25.8104 33.9731C26.7606 33.6376 27.5588 33.1609 28.2484 32.5171C28.4627 32.3171 28.6422 32.1572 28.6474 32.1617C28.6526 32.1663 28.6343 32.4581 28.6068 32.8103ZM18.024 33.5552C18.3525 33.7199 18.7653 33.8999 18.9413 33.9552C19.1173 34.0106 19.2612 34.0861 19.2612 34.1231C19.2612 34.2689 19.0816 35.1429 18.9758 35.5114C18.5998 36.8214 18.0425 37.8111 17.2476 38.5806C16.9167 38.9009 16.365 39.345 16.3377 39.3132C16.3121 39.2836 16.0907 37.776 16.037 37.2658C15.9404 36.3493 15.8552 33.9691 15.9167 33.9075C15.9869 33.8372 17.2612 33.2631 17.3562 33.2589C17.395 33.2572 17.6955 33.3905 18.024 33.5552ZM11.6253 34.2579L11.8636 34.3193L11.8562 37.5887C11.8514 39.6871 11.8709 41.0477 11.9107 41.3873C12.0829 42.8562 12.335 43.9342 12.7296 44.8889C12.8356 45.1454 12.9133 45.3643 12.9021 45.3755C12.8909 45.3867 12.6642 45.1017 12.3982 44.7422C11.7265 43.8342 11.2634 42.8738 10.9954 41.8329C10.7433 40.8541 10.7345 40.7136 10.7083 37.255L10.683 33.9304L11.035 34.0635C11.2286 34.1366 11.4942 34.2241 11.6253 34.2579ZM14.6647 34.9962C14.8382 38.6332 15.4942 41.7231 16.7132 44.6455C17.0442 45.4389 17.6248 46.5603 18.0338 47.1959C18.2268 47.4958 18.3754 47.7493 18.3639 47.7591C18.3167 47.7995 17.5008 47.6791 17.0775 47.5693C16.2015 47.3421 15.6832 47.0532 15.0811 46.4567C14.2797 45.663 13.6775 44.3948 13.3679 42.8491C13.1141 41.5816 13.0586 40.769 13.0608 38.3519C13.062 37.096 13.0828 35.7002 13.107 35.2502L13.1512 34.432L13.4655 34.399C13.7113 34.3731 14.3576 34.2651 14.5929 34.2104C14.6116 34.2062 14.6439 34.5598 14.6647 34.9962ZM21.7008 34.4049L22.4969 34.4429L22.4597 34.7265C22.3836 35.3069 22.1384 36.4225 21.9511 37.0412C21.2648 39.3082 20.2791 40.932 18.5185 42.696L17.5737 43.6426L17.3303 42.9187C17.0774 42.1666 16.6458 40.7211 16.6458 40.6263C16.6458 40.5964 16.8593 40.4268 17.1202 40.2494C17.6813 39.868 18.4589 39.12 18.8615 38.5747C19.2159 38.0946 19.8111 36.908 20.0349 36.2355C20.1862 35.781 20.3569 35.0832 20.4555 34.5163C20.4925 34.3038 20.4957 34.3014 20.6989 34.3339C20.8121 34.352 21.263 34.3839 21.7008 34.4049Z" stroke="#3C2C25" stroke-width="0.16" mask="url(#path-1-outside-1_31_2165)"/>
</svg>
