<svg width="146" height="50" viewBox="0 0 146 50" fill="none" xmlns="http://www.w3.org/2000/svg">
<mask id="path-1-outside-1_81_2414" maskUnits="userSpaceOnUse" x="0" y="0" width="37" height="50" fill="black">
<rect fill="white" width="37" height="50"/>
<path fill-rule="evenodd" clip-rule="evenodd" d="M12.738 1.07822C11.0626 1.38394 9.71318 2.29456 9.10749 3.52818C8.69404 4.37024 8.69978 4.32314 8.67797 7.02654L8.65861 9.4284L8.20708 9.71558C7.16581 10.3778 5.78773 11.5898 4.91999 12.6066C2.56705 15.3637 1.29952 18.4206 1.05265 21.9337C0.983528 22.9168 0.982016 31.8119 1.05078 32.7421C1.37616 37.1444 3.4191 41.3027 6.74495 44.3323C9.63383 46.9639 13.0027 48.4866 16.9364 48.9386C17.7419 49.0312 19.7468 49.0164 20.5931 48.9118C24.4918 48.4293 27.7421 46.9151 30.5704 44.2636C33.4579 41.5567 35.3143 38.1387 35.9491 34.3608C36.1577 33.1188 36.1695 32.675 36.1492 26.8158C36.1301 21.2859 36.1275 21.1635 36.0145 20.4978C35.6027 18.0713 34.7382 15.9115 33.3576 13.8599C32.1806 12.1111 30.2289 10.2376 28.7965 9.48171C28.543 9.34799 28.3356 9.23296 28.3356 9.22617C28.3356 9.21938 28.6144 9.22377 28.9552 9.23594C29.6584 9.26105 29.8952 9.20842 30.0399 8.99497C30.13 8.86219 30.1363 8.6421 30.1499 5.18368C30.1657 1.15044 30.1748 1.27528 29.8527 1.08486C29.7123 1.00184 29.1385 0.996144 21.415 1.00142C14.6638 1.00601 13.0557 1.02027 12.738 1.07822ZM28.8969 5.13194L28.9104 8.04106L20.6801 8.05949C13.1982 8.07626 12.4094 8.08597 12.0063 8.16648C11.4223 8.28302 10.5744 8.53235 10.2036 8.69641C10.0402 8.76877 9.90361 8.82793 9.90001 8.82793C9.89641 8.82793 9.90001 7.95272 9.90809 6.88295C9.92228 4.99451 9.9264 4.9258 10.0494 4.52025C10.3678 3.47058 11.1899 2.73352 12.4498 2.36813C12.5932 2.32651 12.9923 2.27477 13.3367 2.2531C13.681 2.23148 17.3199 2.21582 21.4231 2.21827L28.8834 2.22282L28.8969 5.13194ZM25.4402 9.36851C27.2423 9.71589 28.8577 10.6544 30.5289 12.325C31.376 13.1719 31.8051 13.6874 32.3988 14.5718C33.571 16.3178 34.3708 18.2406 34.7479 20.2189C34.9915 21.4964 35.0135 22.065 35.0129 27.0711C35.0123 32.7188 34.9813 33.3066 34.5892 35.11C33.7746 38.8565 31.4891 42.3251 28.2835 44.6797C26.6748 45.8613 24.6842 46.8094 22.8317 47.2765C21.3065 47.6609 20.1796 47.8009 18.632 47.7984C14.9203 47.7924 11.5984 46.6717 8.6692 44.4373C5.59126 42.0895 3.30182 38.4791 2.54426 34.7785C2.22925 33.2395 2.23504 33.3606 2.21209 27.834C2.19065 22.6629 2.21235 21.767 2.38602 20.6558C2.95317 17.0274 5.02438 13.614 8.08344 11.2665C8.30422 11.0971 8.52594 10.9364 8.57613 10.9095C8.66268 10.8632 8.66743 11.0456 8.66743 14.4062V17.9517L8.45964 17.9796C7.74235 18.0759 7.07645 18.8208 6.79321 19.8437C6.538 20.7655 6.53533 22.3797 6.78763 23.2652C7.18058 24.6445 8.13743 25.5285 9.39088 25.6705L9.71084 25.7066L9.71073 27.8015L9.71058 29.8964L9.33918 30.1053C8.86698 30.3708 8.77177 30.4903 8.77177 30.8171C8.77177 31.0327 8.79853 31.1005 8.94936 31.2669C9.04697 31.3747 9.25821 31.5334 9.41868 31.6195L9.71047 31.7761L9.71068 34.645C9.71084 37.7599 9.75309 38.6346 9.9516 39.6344C10.419 41.9885 11.7053 43.9046 13.5975 45.0654C15.0896 45.9808 16.9449 46.5347 18.5621 46.5477C19.3661 46.5542 19.395 46.5332 19.5962 45.799C19.8524 44.8642 20.2613 44.2142 21.1605 43.3128C21.5058 42.9667 22.2108 42.3443 22.7273 41.9298C24.4941 40.5119 25.4106 39.6372 26.1991 38.6162C28.0512 36.2182 28.8231 33.7936 28.9334 30.027C28.9499 29.467 28.9775 28.6881 28.995 28.2962L29.0267 27.5837L29.3664 27.5473C30.1732 27.4608 30.7915 27.1575 31.3956 26.552C31.7318 26.215 31.8652 26.0338 32.0324 25.6875C32.3952 24.9356 32.5438 24.101 32.4916 23.1086C32.4155 21.6604 31.7702 20.8039 30.5237 20.4969C30.0828 20.3882 28.6592 20.33 28.5021 20.4142C28.2583 20.5448 28.2399 20.6375 28.1805 22.0382C28.097 24.0096 27.9272 26.8986 27.8599 27.4946C27.7478 28.4871 27.5003 29.1899 27.0622 29.7598C26.2569 30.8072 25.267 31.0948 24.1742 30.5988C23.9857 30.5132 23.4891 30.2121 23.0707 29.9296C22.6523 29.6471 22.1104 29.3029 21.8665 29.1646C20.8959 28.6146 19.7357 28.2205 18.5276 28.0303C17.5839 27.8819 15.7873 27.8703 14.8235 28.0064C13.6142 28.1773 12.3369 28.5702 11.3151 29.0856L10.9108 29.2896V24.2019V19.1142H13.4694H16.0282L16.0006 19.2839C15.9855 19.3772 15.9371 19.994 15.8931 20.6545C15.8491 21.315 15.7535 22.7365 15.6806 23.8135C15.6078 24.8904 15.5346 26.1004 15.5179 26.5025L15.4875 27.2335L15.646 27.4032L15.8044 27.5729H17.7359H19.6674L19.8261 27.4392C20.1257 27.1869 20.076 26.6527 19.7408 26.5227C19.6496 26.4874 19.068 26.4696 18.1494 26.474L16.7017 26.4811V26.3368C16.7017 26.0496 17.0709 20.3189 17.1461 19.4386C17.2369 18.3765 17.3247 17.9154 17.5637 17.246C18.0289 15.9434 18.7751 15.0927 19.9551 14.5197C21.0613 13.9825 22.3954 13.781 23.746 13.9471C25.6673 14.1833 27.0448 15.1905 27.4204 16.6337C27.506 16.9628 27.5299 17.628 27.4577 17.6727C27.4339 17.6875 27.2285 17.5754 27.0012 17.4237C26.4602 17.0625 25.7906 16.7062 25.3358 16.5374C24.6571 16.2853 24.2948 16.2242 23.5099 16.2289C22.6218 16.2342 22.1688 16.3369 21.4558 16.6946C20.6182 17.1147 19.9033 17.9125 19.5918 18.7748C19.4812 19.0808 19.4734 19.0888 19.2555 19.1188C18.8094 19.1803 18.5987 19.6447 18.8383 20.0382C18.9094 20.1549 18.9937 20.2151 19.1184 20.2385C19.2893 20.2706 19.2983 20.2837 19.3293 20.5481C19.4769 21.8052 20.3835 22.9994 21.5618 23.4889C23.0995 24.1277 24.6884 23.7876 25.6474 22.6143C26.1484 22.0014 26.4355 21.2547 26.4932 20.4144L26.5241 19.9654L26.7125 19.9C26.8162 19.8641 27.0588 19.7424 27.2517 19.6296C28.8057 18.7208 29.0948 16.6741 27.915 14.9327C26.8613 13.3773 24.6694 12.5401 22.1795 12.7421C19.0409 12.9966 16.9291 14.7221 16.1999 17.6277L16.1151 17.9654H13.0039H9.89265L9.90194 14.0624C9.90705 11.9157 9.9131 10.145 9.9154 10.1275C9.93026 10.0128 11.2473 9.53492 11.913 9.40271C12.568 9.27259 13.2997 9.25875 19.0232 9.26821C24.4248 9.27708 25.0137 9.28632 25.4402 9.36851ZM24.6576 17.5427C24.8585 17.6028 25.2173 17.7453 25.4548 17.8593C25.9524 18.0981 26.6861 18.5933 26.6276 18.651C26.5333 18.7438 25.6289 18.9589 25.1139 19.0109C24.7849 19.0441 23.7598 19.061 22.6326 19.0517L20.7119 19.0358L20.9724 18.6645C21.3951 18.0623 21.8916 17.708 22.623 17.4866C23.0561 17.3556 24.1313 17.3852 24.6576 17.5427ZM9.71084 21.836V24.5578L9.4899 24.5224C8.9274 24.4324 8.40068 24.0525 8.1462 23.5533C7.90152 23.0733 7.82144 22.5984 7.82013 21.6205C7.8181 20.0342 8.06559 19.3615 8.7196 19.1755C8.82003 19.147 9.08417 19.1215 9.30652 19.1189L9.71084 19.1142V21.836ZM25.3098 20.3648C25.3098 21.1603 24.7023 22.1126 23.991 22.4321C23.5304 22.6389 22.8158 22.6734 22.2913 22.5139C21.3832 22.2379 20.6515 21.3989 20.5271 20.4911L20.4961 20.264L22.6551 20.2498C23.8426 20.242 24.9257 20.23 25.0619 20.2231C25.3044 20.2109 25.3098 20.214 25.3098 20.3648ZM30.0029 21.595C30.6249 21.6648 30.9922 21.9374 31.2096 22.4908C31.3149 22.7586 31.329 22.8833 31.3264 23.5263C31.322 24.656 31.1323 25.2369 30.5939 25.7694C30.1913 26.1678 29.6613 26.4222 29.2314 26.4236L29.0577 26.4242L29.0891 26.0978C29.1422 25.5457 29.2692 23.4167 29.3032 22.5081C29.321 22.0343 29.345 21.6161 29.3566 21.5788C29.3705 21.5339 29.4352 21.5198 29.5479 21.537C29.6416 21.5513 29.8463 21.5774 30.0029 21.595ZM18.2146 29.1153C19.1967 29.2588 20.1356 29.5524 21.0057 29.9882C21.491 30.2313 21.7582 30.3975 22.822 31.1182C23.0462 31.2701 23.3247 31.4484 23.441 31.5146L23.6523 31.6347L23.4822 31.6721C22.9089 31.7981 21.1257 31.7968 20.2356 31.6697C19.485 31.5626 19.1286 31.4469 18.1159 30.9815C17.1009 30.5151 17.0357 30.5114 16.3024 30.8785C15.6857 31.1872 14.9987 31.456 14.4583 31.6001C14.087 31.699 13.8833 31.7181 13.2062 31.7172C12.4764 31.7163 12.3519 31.7022 11.9281 31.5735C11.6698 31.495 11.3412 31.3648 11.1977 31.2842C10.9432 31.1412 10.9365 31.1313 10.9211 30.8718C10.9058 30.6118 10.9101 30.6031 11.117 30.4723C12.3173 29.7139 14.241 29.1433 16.0234 29.0168C16.4893 28.9837 17.6807 29.0373 18.2146 29.1153ZM27.7065 31.3846C27.5019 34.0048 26.6508 36.2232 25.1167 38.1347C24.3525 39.0868 23.6881 39.714 22.1091 40.9742C20.4552 42.2941 19.5089 43.2765 19.0113 44.1901C18.937 44.3265 18.8609 44.4381 18.8421 44.4381C18.7928 44.4381 18.1413 43.2692 17.9746 42.8814L17.8328 42.5516L18.115 42.3097C18.991 41.5584 20.0627 40.4065 20.7012 39.53C21.8446 37.9605 22.7353 35.6944 23.1047 33.4152L23.1969 32.8466L23.3973 32.8466C23.7056 32.8465 24.5736 32.6552 25.0848 32.4747C25.9756 32.1602 26.7239 31.7133 27.3705 31.1097C27.5713 30.9222 27.7396 30.7723 27.7445 30.7766C27.7493 30.7808 27.7322 31.0544 27.7065 31.3846ZM17.7851 32.083C18.093 32.2374 18.48 32.4061 18.645 32.458C18.81 32.5099 18.945 32.5807 18.945 32.6153C18.945 32.7521 18.7765 33.5714 18.6773 33.9169C18.3249 35.145 17.8024 36.0729 17.0571 36.7943C16.747 37.0945 16.2298 37.5109 16.2041 37.4811C16.1802 37.4533 15.9726 36.04 15.9222 35.5617C15.8317 34.7024 15.7518 32.471 15.8095 32.4132C15.8753 32.3474 17.0699 31.8091 17.159 31.8052C17.1953 31.8036 17.4771 31.9286 17.7851 32.083ZM11.7863 32.7417L12.0097 32.7993L12.0027 35.8644C11.9982 37.8317 12.0166 39.1072 12.0539 39.4256C12.2153 40.8027 12.4516 41.8133 12.8216 42.7083C12.921 42.9488 12.9938 43.154 12.9833 43.1645C12.9728 43.175 12.7602 42.9078 12.5109 42.5707C11.8811 41.7195 11.447 40.8192 11.1957 39.8433C10.9594 38.9257 10.9512 38.794 10.9266 35.5516L10.9029 32.4347L11.2329 32.5595C11.4144 32.6281 11.6634 32.7101 11.7863 32.7417ZM14.6357 33.434C14.7984 36.8436 15.4134 39.7404 16.5562 42.4801C16.8665 43.2239 17.4108 44.2752 17.7943 44.8711C17.9752 45.1523 18.1145 45.3899 18.1037 45.3991C18.0595 45.437 17.2945 45.3242 16.8977 45.2212C16.0765 45.0082 15.5905 44.7373 15.026 44.1782C14.2748 43.434 13.7103 42.2451 13.42 40.796C13.182 39.6077 13.13 38.8459 13.1321 36.5799C13.1332 35.4024 13.1527 34.0939 13.1754 33.672L13.2168 32.905L13.5115 32.874C13.7419 32.8498 14.3478 32.7485 14.5684 32.6973C14.5859 32.6932 14.6162 33.0247 14.6357 33.434ZM21.2321 32.8795L21.9784 32.9152L21.9435 33.1811C21.8721 33.7252 21.6423 34.7711 21.4667 35.3511C20.8233 37.4764 19.8992 38.9987 18.2487 40.6524L17.3629 41.5399L17.1347 40.8613C16.8977 40.1561 16.493 38.801 16.493 38.7121C16.493 38.6841 16.6932 38.5251 16.9378 38.3588C17.4638 38.0012 18.1928 37.3 18.5702 36.7887C18.9025 36.3386 19.4605 35.2263 19.6703 34.5957C19.8121 34.1697 19.9722 33.5155 20.0646 32.984C20.0993 32.7848 20.1023 32.7825 20.2927 32.813C20.3989 32.83 20.8216 32.8599 21.2321 32.8795Z"/>
</mask>
<path fill-rule="evenodd" clip-rule="evenodd" d="M12.738 1.07822C11.0626 1.38394 9.71318 2.29456 9.10749 3.52818C8.69404 4.37024 8.69978 4.32314 8.67797 7.02654L8.65861 9.4284L8.20708 9.71558C7.16581 10.3778 5.78773 11.5898 4.91999 12.6066C2.56705 15.3637 1.29952 18.4206 1.05265 21.9337C0.983528 22.9168 0.982016 31.8119 1.05078 32.7421C1.37616 37.1444 3.4191 41.3027 6.74495 44.3323C9.63383 46.9639 13.0027 48.4866 16.9364 48.9386C17.7419 49.0312 19.7468 49.0164 20.5931 48.9118C24.4918 48.4293 27.7421 46.9151 30.5704 44.2636C33.4579 41.5567 35.3143 38.1387 35.9491 34.3608C36.1577 33.1188 36.1695 32.675 36.1492 26.8158C36.1301 21.2859 36.1275 21.1635 36.0145 20.4978C35.6027 18.0713 34.7382 15.9115 33.3576 13.8599C32.1806 12.1111 30.2289 10.2376 28.7965 9.48171C28.543 9.34799 28.3356 9.23296 28.3356 9.22617C28.3356 9.21938 28.6144 9.22377 28.9552 9.23594C29.6584 9.26105 29.8952 9.20842 30.0399 8.99497C30.13 8.86219 30.1363 8.6421 30.1499 5.18368C30.1657 1.15044 30.1748 1.27528 29.8527 1.08486C29.7123 1.00184 29.1385 0.996144 21.415 1.00142C14.6638 1.00601 13.0557 1.02027 12.738 1.07822ZM28.8969 5.13194L28.9104 8.04106L20.6801 8.05949C13.1982 8.07626 12.4094 8.08597 12.0063 8.16648C11.4223 8.28302 10.5744 8.53235 10.2036 8.69641C10.0402 8.76877 9.90361 8.82793 9.90001 8.82793C9.89641 8.82793 9.90001 7.95272 9.90809 6.88295C9.92228 4.99451 9.9264 4.9258 10.0494 4.52025C10.3678 3.47058 11.1899 2.73352 12.4498 2.36813C12.5932 2.32651 12.9923 2.27477 13.3367 2.2531C13.681 2.23148 17.3199 2.21582 21.4231 2.21827L28.8834 2.22282L28.8969 5.13194ZM25.4402 9.36851C27.2423 9.71589 28.8577 10.6544 30.5289 12.325C31.376 13.1719 31.8051 13.6874 32.3988 14.5718C33.571 16.3178 34.3708 18.2406 34.7479 20.2189C34.9915 21.4964 35.0135 22.065 35.0129 27.0711C35.0123 32.7188 34.9813 33.3066 34.5892 35.11C33.7746 38.8565 31.4891 42.3251 28.2835 44.6797C26.6748 45.8613 24.6842 46.8094 22.8317 47.2765C21.3065 47.6609 20.1796 47.8009 18.632 47.7984C14.9203 47.7924 11.5984 46.6717 8.6692 44.4373C5.59126 42.0895 3.30182 38.4791 2.54426 34.7785C2.22925 33.2395 2.23504 33.3606 2.21209 27.834C2.19065 22.6629 2.21235 21.767 2.38602 20.6558C2.95317 17.0274 5.02438 13.614 8.08344 11.2665C8.30422 11.0971 8.52594 10.9364 8.57613 10.9095C8.66268 10.8632 8.66743 11.0456 8.66743 14.4062V17.9517L8.45964 17.9796C7.74235 18.0759 7.07645 18.8208 6.79321 19.8437C6.538 20.7655 6.53533 22.3797 6.78763 23.2652C7.18058 24.6445 8.13743 25.5285 9.39088 25.6705L9.71084 25.7066L9.71073 27.8015L9.71058 29.8964L9.33918 30.1053C8.86698 30.3708 8.77177 30.4903 8.77177 30.8171C8.77177 31.0327 8.79853 31.1005 8.94936 31.2669C9.04697 31.3747 9.25821 31.5334 9.41868 31.6195L9.71047 31.7761L9.71068 34.645C9.71084 37.7599 9.75309 38.6346 9.9516 39.6344C10.419 41.9885 11.7053 43.9046 13.5975 45.0654C15.0896 45.9808 16.9449 46.5347 18.5621 46.5477C19.3661 46.5542 19.395 46.5332 19.5962 45.799C19.8524 44.8642 20.2613 44.2142 21.1605 43.3128C21.5058 42.9667 22.2108 42.3443 22.7273 41.9298C24.4941 40.5119 25.4106 39.6372 26.1991 38.6162C28.0512 36.2182 28.8231 33.7936 28.9334 30.027C28.9499 29.467 28.9775 28.6881 28.995 28.2962L29.0267 27.5837L29.3664 27.5473C30.1732 27.4608 30.7915 27.1575 31.3956 26.552C31.7318 26.215 31.8652 26.0338 32.0324 25.6875C32.3952 24.9356 32.5438 24.101 32.4916 23.1086C32.4155 21.6604 31.7702 20.8039 30.5237 20.4969C30.0828 20.3882 28.6592 20.33 28.5021 20.4142C28.2583 20.5448 28.2399 20.6375 28.1805 22.0382C28.097 24.0096 27.9272 26.8986 27.8599 27.4946C27.7478 28.4871 27.5003 29.1899 27.0622 29.7598C26.2569 30.8072 25.267 31.0948 24.1742 30.5988C23.9857 30.5132 23.4891 30.2121 23.0707 29.9296C22.6523 29.6471 22.1104 29.3029 21.8665 29.1646C20.8959 28.6146 19.7357 28.2205 18.5276 28.0303C17.5839 27.8819 15.7873 27.8703 14.8235 28.0064C13.6142 28.1773 12.3369 28.5702 11.3151 29.0856L10.9108 29.2896V24.2019V19.1142H13.4694H16.0282L16.0006 19.2839C15.9855 19.3772 15.9371 19.994 15.8931 20.6545C15.8491 21.315 15.7535 22.7365 15.6806 23.8135C15.6078 24.8904 15.5346 26.1004 15.5179 26.5025L15.4875 27.2335L15.646 27.4032L15.8044 27.5729H17.7359H19.6674L19.8261 27.4392C20.1257 27.1869 20.076 26.6527 19.7408 26.5227C19.6496 26.4874 19.068 26.4696 18.1494 26.474L16.7017 26.4811V26.3368C16.7017 26.0496 17.0709 20.3189 17.1461 19.4386C17.2369 18.3765 17.3247 17.9154 17.5637 17.246C18.0289 15.9434 18.7751 15.0927 19.9551 14.5197C21.0613 13.9825 22.3954 13.781 23.746 13.9471C25.6673 14.1833 27.0448 15.1905 27.4204 16.6337C27.506 16.9628 27.5299 17.628 27.4577 17.6727C27.4339 17.6875 27.2285 17.5754 27.0012 17.4237C26.4602 17.0625 25.7906 16.7062 25.3358 16.5374C24.6571 16.2853 24.2948 16.2242 23.5099 16.2289C22.6218 16.2342 22.1688 16.3369 21.4558 16.6946C20.6182 17.1147 19.9033 17.9125 19.5918 18.7748C19.4812 19.0808 19.4734 19.0888 19.2555 19.1188C18.8094 19.1803 18.5987 19.6447 18.8383 20.0382C18.9094 20.1549 18.9937 20.2151 19.1184 20.2385C19.2893 20.2706 19.2983 20.2837 19.3293 20.5481C19.4769 21.8052 20.3835 22.9994 21.5618 23.4889C23.0995 24.1277 24.6884 23.7876 25.6474 22.6143C26.1484 22.0014 26.4355 21.2547 26.4932 20.4144L26.5241 19.9654L26.7125 19.9C26.8162 19.8641 27.0588 19.7424 27.2517 19.6296C28.8057 18.7208 29.0948 16.6741 27.915 14.9327C26.8613 13.3773 24.6694 12.5401 22.1795 12.7421C19.0409 12.9966 16.9291 14.7221 16.1999 17.6277L16.1151 17.9654H13.0039H9.89265L9.90194 14.0624C9.90705 11.9157 9.9131 10.145 9.9154 10.1275C9.93026 10.0128 11.2473 9.53492 11.913 9.40271C12.568 9.27259 13.2997 9.25875 19.0232 9.26821C24.4248 9.27708 25.0137 9.28632 25.4402 9.36851ZM24.6576 17.5427C24.8585 17.6028 25.2173 17.7453 25.4548 17.8593C25.9524 18.0981 26.6861 18.5933 26.6276 18.651C26.5333 18.7438 25.6289 18.9589 25.1139 19.0109C24.7849 19.0441 23.7598 19.061 22.6326 19.0517L20.7119 19.0358L20.9724 18.6645C21.3951 18.0623 21.8916 17.708 22.623 17.4866C23.0561 17.3556 24.1313 17.3852 24.6576 17.5427ZM9.71084 21.836V24.5578L9.4899 24.5224C8.9274 24.4324 8.40068 24.0525 8.1462 23.5533C7.90152 23.0733 7.82144 22.5984 7.82013 21.6205C7.8181 20.0342 8.06559 19.3615 8.7196 19.1755C8.82003 19.147 9.08417 19.1215 9.30652 19.1189L9.71084 19.1142V21.836ZM25.3098 20.3648C25.3098 21.1603 24.7023 22.1126 23.991 22.4321C23.5304 22.6389 22.8158 22.6734 22.2913 22.5139C21.3832 22.2379 20.6515 21.3989 20.5271 20.4911L20.4961 20.264L22.6551 20.2498C23.8426 20.242 24.9257 20.23 25.0619 20.2231C25.3044 20.2109 25.3098 20.214 25.3098 20.3648ZM30.0029 21.595C30.6249 21.6648 30.9922 21.9374 31.2096 22.4908C31.3149 22.7586 31.329 22.8833 31.3264 23.5263C31.322 24.656 31.1323 25.2369 30.5939 25.7694C30.1913 26.1678 29.6613 26.4222 29.2314 26.4236L29.0577 26.4242L29.0891 26.0978C29.1422 25.5457 29.2692 23.4167 29.3032 22.5081C29.321 22.0343 29.345 21.6161 29.3566 21.5788C29.3705 21.5339 29.4352 21.5198 29.5479 21.537C29.6416 21.5513 29.8463 21.5774 30.0029 21.595ZM18.2146 29.1153C19.1967 29.2588 20.1356 29.5524 21.0057 29.9882C21.491 30.2313 21.7582 30.3975 22.822 31.1182C23.0462 31.2701 23.3247 31.4484 23.441 31.5146L23.6523 31.6347L23.4822 31.6721C22.9089 31.7981 21.1257 31.7968 20.2356 31.6697C19.485 31.5626 19.1286 31.4469 18.1159 30.9815C17.1009 30.5151 17.0357 30.5114 16.3024 30.8785C15.6857 31.1872 14.9987 31.456 14.4583 31.6001C14.087 31.699 13.8833 31.7181 13.2062 31.7172C12.4764 31.7163 12.3519 31.7022 11.9281 31.5735C11.6698 31.495 11.3412 31.3648 11.1977 31.2842C10.9432 31.1412 10.9365 31.1313 10.9211 30.8718C10.9058 30.6118 10.9101 30.6031 11.117 30.4723C12.3173 29.7139 14.241 29.1433 16.0234 29.0168C16.4893 28.9837 17.6807 29.0373 18.2146 29.1153ZM27.7065 31.3846C27.5019 34.0048 26.6508 36.2232 25.1167 38.1347C24.3525 39.0868 23.6881 39.714 22.1091 40.9742C20.4552 42.2941 19.5089 43.2765 19.0113 44.1901C18.937 44.3265 18.8609 44.4381 18.8421 44.4381C18.7928 44.4381 18.1413 43.2692 17.9746 42.8814L17.8328 42.5516L18.115 42.3097C18.991 41.5584 20.0627 40.4065 20.7012 39.53C21.8446 37.9605 22.7353 35.6944 23.1047 33.4152L23.1969 32.8466L23.3973 32.8466C23.7056 32.8465 24.5736 32.6552 25.0848 32.4747C25.9756 32.1602 26.7239 31.7133 27.3705 31.1097C27.5713 30.9222 27.7396 30.7723 27.7445 30.7766C27.7493 30.7808 27.7322 31.0544 27.7065 31.3846ZM17.7851 32.083C18.093 32.2374 18.48 32.4061 18.645 32.458C18.81 32.5099 18.945 32.5807 18.945 32.6153C18.945 32.7521 18.7765 33.5714 18.6773 33.9169C18.3249 35.145 17.8024 36.0729 17.0571 36.7943C16.747 37.0945 16.2298 37.5109 16.2041 37.4811C16.1802 37.4533 15.9726 36.04 15.9222 35.5617C15.8317 34.7024 15.7518 32.471 15.8095 32.4132C15.8753 32.3474 17.0699 31.8091 17.159 31.8052C17.1953 31.8036 17.4771 31.9286 17.7851 32.083ZM11.7863 32.7417L12.0097 32.7993L12.0027 35.8644C11.9982 37.8317 12.0166 39.1072 12.0539 39.4256C12.2153 40.8027 12.4516 41.8133 12.8216 42.7083C12.921 42.9488 12.9938 43.154 12.9833 43.1645C12.9728 43.175 12.7602 42.9078 12.5109 42.5707C11.8811 41.7195 11.447 40.8192 11.1957 39.8433C10.9594 38.9257 10.9512 38.794 10.9266 35.5516L10.9029 32.4347L11.2329 32.5595C11.4144 32.6281 11.6634 32.7101 11.7863 32.7417ZM14.6357 33.434C14.7984 36.8436 15.4134 39.7404 16.5562 42.4801C16.8665 43.2239 17.4108 44.2752 17.7943 44.8711C17.9752 45.1523 18.1145 45.3899 18.1037 45.3991C18.0595 45.437 17.2945 45.3242 16.8977 45.2212C16.0765 45.0082 15.5905 44.7373 15.026 44.1782C14.2748 43.434 13.7103 42.2451 13.42 40.796C13.182 39.6077 13.13 38.8459 13.1321 36.5799C13.1332 35.4024 13.1527 34.0939 13.1754 33.672L13.2168 32.905L13.5115 32.874C13.7419 32.8498 14.3478 32.7485 14.5684 32.6973C14.5859 32.6932 14.6162 33.0247 14.6357 33.434ZM21.2321 32.8795L21.9784 32.9152L21.9435 33.1811C21.8721 33.7252 21.6423 34.7711 21.4667 35.3511C20.8233 37.4764 19.8992 38.9987 18.2487 40.6524L17.3629 41.5399L17.1347 40.8613C16.8977 40.1561 16.493 38.801 16.493 38.7121C16.493 38.6841 16.6932 38.5251 16.9378 38.3588C17.4638 38.0012 18.1928 37.3 18.5702 36.7887C18.9025 36.3386 19.4605 35.2263 19.6703 34.5957C19.8121 34.1697 19.9722 33.5155 20.0646 32.984C20.0993 32.7848 20.1023 32.7825 20.2927 32.813C20.3989 32.83 20.8216 32.8599 21.2321 32.8795Z" fill="#3C2C25"/>
<path fill-rule="evenodd" clip-rule="evenodd" d="M12.738 1.07822C11.0626 1.38394 9.71318 2.29456 9.10749 3.52818C8.69404 4.37024 8.69978 4.32314 8.67797 7.02654L8.65861 9.4284L8.20708 9.71558C7.16581 10.3778 5.78773 11.5898 4.91999 12.6066C2.56705 15.3637 1.29952 18.4206 1.05265 21.9337C0.983528 22.9168 0.982016 31.8119 1.05078 32.7421C1.37616 37.1444 3.4191 41.3027 6.74495 44.3323C9.63383 46.9639 13.0027 48.4866 16.9364 48.9386C17.7419 49.0312 19.7468 49.0164 20.5931 48.9118C24.4918 48.4293 27.7421 46.9151 30.5704 44.2636C33.4579 41.5567 35.3143 38.1387 35.9491 34.3608C36.1577 33.1188 36.1695 32.675 36.1492 26.8158C36.1301 21.2859 36.1275 21.1635 36.0145 20.4978C35.6027 18.0713 34.7382 15.9115 33.3576 13.8599C32.1806 12.1111 30.2289 10.2376 28.7965 9.48171C28.543 9.34799 28.3356 9.23296 28.3356 9.22617C28.3356 9.21938 28.6144 9.22377 28.9552 9.23594C29.6584 9.26105 29.8952 9.20842 30.0399 8.99497C30.13 8.86219 30.1363 8.6421 30.1499 5.18368C30.1657 1.15044 30.1748 1.27528 29.8527 1.08486C29.7123 1.00184 29.1385 0.996144 21.415 1.00142C14.6638 1.00601 13.0557 1.02027 12.738 1.07822ZM28.8969 5.13194L28.9104 8.04106L20.6801 8.05949C13.1982 8.07626 12.4094 8.08597 12.0063 8.16648C11.4223 8.28302 10.5744 8.53235 10.2036 8.69641C10.0402 8.76877 9.90361 8.82793 9.90001 8.82793C9.89641 8.82793 9.90001 7.95272 9.90809 6.88295C9.92228 4.99451 9.9264 4.9258 10.0494 4.52025C10.3678 3.47058 11.1899 2.73352 12.4498 2.36813C12.5932 2.32651 12.9923 2.27477 13.3367 2.2531C13.681 2.23148 17.3199 2.21582 21.4231 2.21827L28.8834 2.22282L28.8969 5.13194ZM25.4402 9.36851C27.2423 9.71589 28.8577 10.6544 30.5289 12.325C31.376 13.1719 31.8051 13.6874 32.3988 14.5718C33.571 16.3178 34.3708 18.2406 34.7479 20.2189C34.9915 21.4964 35.0135 22.065 35.0129 27.0711C35.0123 32.7188 34.9813 33.3066 34.5892 35.11C33.7746 38.8565 31.4891 42.3251 28.2835 44.6797C26.6748 45.8613 24.6842 46.8094 22.8317 47.2765C21.3065 47.6609 20.1796 47.8009 18.632 47.7984C14.9203 47.7924 11.5984 46.6717 8.6692 44.4373C5.59126 42.0895 3.30182 38.4791 2.54426 34.7785C2.22925 33.2395 2.23504 33.3606 2.21209 27.834C2.19065 22.6629 2.21235 21.767 2.38602 20.6558C2.95317 17.0274 5.02438 13.614 8.08344 11.2665C8.30422 11.0971 8.52594 10.9364 8.57613 10.9095C8.66268 10.8632 8.66743 11.0456 8.66743 14.4062V17.9517L8.45964 17.9796C7.74235 18.0759 7.07645 18.8208 6.79321 19.8437C6.538 20.7655 6.53533 22.3797 6.78763 23.2652C7.18058 24.6445 8.13743 25.5285 9.39088 25.6705L9.71084 25.7066L9.71073 27.8015L9.71058 29.8964L9.33918 30.1053C8.86698 30.3708 8.77177 30.4903 8.77177 30.8171C8.77177 31.0327 8.79853 31.1005 8.94936 31.2669C9.04697 31.3747 9.25821 31.5334 9.41868 31.6195L9.71047 31.7761L9.71068 34.645C9.71084 37.7599 9.75309 38.6346 9.9516 39.6344C10.419 41.9885 11.7053 43.9046 13.5975 45.0654C15.0896 45.9808 16.9449 46.5347 18.5621 46.5477C19.3661 46.5542 19.395 46.5332 19.5962 45.799C19.8524 44.8642 20.2613 44.2142 21.1605 43.3128C21.5058 42.9667 22.2108 42.3443 22.7273 41.9298C24.4941 40.5119 25.4106 39.6372 26.1991 38.6162C28.0512 36.2182 28.8231 33.7936 28.9334 30.027C28.9499 29.467 28.9775 28.6881 28.995 28.2962L29.0267 27.5837L29.3664 27.5473C30.1732 27.4608 30.7915 27.1575 31.3956 26.552C31.7318 26.215 31.8652 26.0338 32.0324 25.6875C32.3952 24.9356 32.5438 24.101 32.4916 23.1086C32.4155 21.6604 31.7702 20.8039 30.5237 20.4969C30.0828 20.3882 28.6592 20.33 28.5021 20.4142C28.2583 20.5448 28.2399 20.6375 28.1805 22.0382C28.097 24.0096 27.9272 26.8986 27.8599 27.4946C27.7478 28.4871 27.5003 29.1899 27.0622 29.7598C26.2569 30.8072 25.267 31.0948 24.1742 30.5988C23.9857 30.5132 23.4891 30.2121 23.0707 29.9296C22.6523 29.6471 22.1104 29.3029 21.8665 29.1646C20.8959 28.6146 19.7357 28.2205 18.5276 28.0303C17.5839 27.8819 15.7873 27.8703 14.8235 28.0064C13.6142 28.1773 12.3369 28.5702 11.3151 29.0856L10.9108 29.2896V24.2019V19.1142H13.4694H16.0282L16.0006 19.2839C15.9855 19.3772 15.9371 19.994 15.8931 20.6545C15.8491 21.315 15.7535 22.7365 15.6806 23.8135C15.6078 24.8904 15.5346 26.1004 15.5179 26.5025L15.4875 27.2335L15.646 27.4032L15.8044 27.5729H17.7359H19.6674L19.8261 27.4392C20.1257 27.1869 20.076 26.6527 19.7408 26.5227C19.6496 26.4874 19.068 26.4696 18.1494 26.474L16.7017 26.4811V26.3368C16.7017 26.0496 17.0709 20.3189 17.1461 19.4386C17.2369 18.3765 17.3247 17.9154 17.5637 17.246C18.0289 15.9434 18.7751 15.0927 19.9551 14.5197C21.0613 13.9825 22.3954 13.781 23.746 13.9471C25.6673 14.1833 27.0448 15.1905 27.4204 16.6337C27.506 16.9628 27.5299 17.628 27.4577 17.6727C27.4339 17.6875 27.2285 17.5754 27.0012 17.4237C26.4602 17.0625 25.7906 16.7062 25.3358 16.5374C24.6571 16.2853 24.2948 16.2242 23.5099 16.2289C22.6218 16.2342 22.1688 16.3369 21.4558 16.6946C20.6182 17.1147 19.9033 17.9125 19.5918 18.7748C19.4812 19.0808 19.4734 19.0888 19.2555 19.1188C18.8094 19.1803 18.5987 19.6447 18.8383 20.0382C18.9094 20.1549 18.9937 20.2151 19.1184 20.2385C19.2893 20.2706 19.2983 20.2837 19.3293 20.5481C19.4769 21.8052 20.3835 22.9994 21.5618 23.4889C23.0995 24.1277 24.6884 23.7876 25.6474 22.6143C26.1484 22.0014 26.4355 21.2547 26.4932 20.4144L26.5241 19.9654L26.7125 19.9C26.8162 19.8641 27.0588 19.7424 27.2517 19.6296C28.8057 18.7208 29.0948 16.6741 27.915 14.9327C26.8613 13.3773 24.6694 12.5401 22.1795 12.7421C19.0409 12.9966 16.9291 14.7221 16.1999 17.6277L16.1151 17.9654H13.0039H9.89265L9.90194 14.0624C9.90705 11.9157 9.9131 10.145 9.9154 10.1275C9.93026 10.0128 11.2473 9.53492 11.913 9.40271C12.568 9.27259 13.2997 9.25875 19.0232 9.26821C24.4248 9.27708 25.0137 9.28632 25.4402 9.36851ZM24.6576 17.5427C24.8585 17.6028 25.2173 17.7453 25.4548 17.8593C25.9524 18.0981 26.6861 18.5933 26.6276 18.651C26.5333 18.7438 25.6289 18.9589 25.1139 19.0109C24.7849 19.0441 23.7598 19.061 22.6326 19.0517L20.7119 19.0358L20.9724 18.6645C21.3951 18.0623 21.8916 17.708 22.623 17.4866C23.0561 17.3556 24.1313 17.3852 24.6576 17.5427ZM9.71084 21.836V24.5578L9.4899 24.5224C8.9274 24.4324 8.40068 24.0525 8.1462 23.5533C7.90152 23.0733 7.82144 22.5984 7.82013 21.6205C7.8181 20.0342 8.06559 19.3615 8.7196 19.1755C8.82003 19.147 9.08417 19.1215 9.30652 19.1189L9.71084 19.1142V21.836ZM25.3098 20.3648C25.3098 21.1603 24.7023 22.1126 23.991 22.4321C23.5304 22.6389 22.8158 22.6734 22.2913 22.5139C21.3832 22.2379 20.6515 21.3989 20.5271 20.4911L20.4961 20.264L22.6551 20.2498C23.8426 20.242 24.9257 20.23 25.0619 20.2231C25.3044 20.2109 25.3098 20.214 25.3098 20.3648ZM30.0029 21.595C30.6249 21.6648 30.9922 21.9374 31.2096 22.4908C31.3149 22.7586 31.329 22.8833 31.3264 23.5263C31.322 24.656 31.1323 25.2369 30.5939 25.7694C30.1913 26.1678 29.6613 26.4222 29.2314 26.4236L29.0577 26.4242L29.0891 26.0978C29.1422 25.5457 29.2692 23.4167 29.3032 22.5081C29.321 22.0343 29.345 21.6161 29.3566 21.5788C29.3705 21.5339 29.4352 21.5198 29.5479 21.537C29.6416 21.5513 29.8463 21.5774 30.0029 21.595ZM18.2146 29.1153C19.1967 29.2588 20.1356 29.5524 21.0057 29.9882C21.491 30.2313 21.7582 30.3975 22.822 31.1182C23.0462 31.2701 23.3247 31.4484 23.441 31.5146L23.6523 31.6347L23.4822 31.6721C22.9089 31.7981 21.1257 31.7968 20.2356 31.6697C19.485 31.5626 19.1286 31.4469 18.1159 30.9815C17.1009 30.5151 17.0357 30.5114 16.3024 30.8785C15.6857 31.1872 14.9987 31.456 14.4583 31.6001C14.087 31.699 13.8833 31.7181 13.2062 31.7172C12.4764 31.7163 12.3519 31.7022 11.9281 31.5735C11.6698 31.495 11.3412 31.3648 11.1977 31.2842C10.9432 31.1412 10.9365 31.1313 10.9211 30.8718C10.9058 30.6118 10.9101 30.6031 11.117 30.4723C12.3173 29.7139 14.241 29.1433 16.0234 29.0168C16.4893 28.9837 17.6807 29.0373 18.2146 29.1153ZM27.7065 31.3846C27.5019 34.0048 26.6508 36.2232 25.1167 38.1347C24.3525 39.0868 23.6881 39.714 22.1091 40.9742C20.4552 42.2941 19.5089 43.2765 19.0113 44.1901C18.937 44.3265 18.8609 44.4381 18.8421 44.4381C18.7928 44.4381 18.1413 43.2692 17.9746 42.8814L17.8328 42.5516L18.115 42.3097C18.991 41.5584 20.0627 40.4065 20.7012 39.53C21.8446 37.9605 22.7353 35.6944 23.1047 33.4152L23.1969 32.8466L23.3973 32.8466C23.7056 32.8465 24.5736 32.6552 25.0848 32.4747C25.9756 32.1602 26.7239 31.7133 27.3705 31.1097C27.5713 30.9222 27.7396 30.7723 27.7445 30.7766C27.7493 30.7808 27.7322 31.0544 27.7065 31.3846ZM17.7851 32.083C18.093 32.2374 18.48 32.4061 18.645 32.458C18.81 32.5099 18.945 32.5807 18.945 32.6153C18.945 32.7521 18.7765 33.5714 18.6773 33.9169C18.3249 35.145 17.8024 36.0729 17.0571 36.7943C16.747 37.0945 16.2298 37.5109 16.2041 37.4811C16.1802 37.4533 15.9726 36.04 15.9222 35.5617C15.8317 34.7024 15.7518 32.471 15.8095 32.4132C15.8753 32.3474 17.0699 31.8091 17.159 31.8052C17.1953 31.8036 17.4771 31.9286 17.7851 32.083ZM11.7863 32.7417L12.0097 32.7993L12.0027 35.8644C11.9982 37.8317 12.0166 39.1072 12.0539 39.4256C12.2153 40.8027 12.4516 41.8133 12.8216 42.7083C12.921 42.9488 12.9938 43.154 12.9833 43.1645C12.9728 43.175 12.7602 42.9078 12.5109 42.5707C11.8811 41.7195 11.447 40.8192 11.1957 39.8433C10.9594 38.9257 10.9512 38.794 10.9266 35.5516L10.9029 32.4347L11.2329 32.5595C11.4144 32.6281 11.6634 32.7101 11.7863 32.7417ZM14.6357 33.434C14.7984 36.8436 15.4134 39.7404 16.5562 42.4801C16.8665 43.2239 17.4108 44.2752 17.7943 44.8711C17.9752 45.1523 18.1145 45.3899 18.1037 45.3991C18.0595 45.437 17.2945 45.3242 16.8977 45.2212C16.0765 45.0082 15.5905 44.7373 15.026 44.1782C14.2748 43.434 13.7103 42.2451 13.42 40.796C13.182 39.6077 13.13 38.8459 13.1321 36.5799C13.1332 35.4024 13.1527 34.0939 13.1754 33.672L13.2168 32.905L13.5115 32.874C13.7419 32.8498 14.3478 32.7485 14.5684 32.6973C14.5859 32.6932 14.6162 33.0247 14.6357 33.434ZM21.2321 32.8795L21.9784 32.9152L21.9435 33.1811C21.8721 33.7252 21.6423 34.7711 21.4667 35.3511C20.8233 37.4764 19.8992 38.9987 18.2487 40.6524L17.3629 41.5399L17.1347 40.8613C16.8977 40.1561 16.493 38.801 16.493 38.7121C16.493 38.6841 16.6932 38.5251 16.9378 38.3588C17.4638 38.0012 18.1928 37.3 18.5702 36.7887C18.9025 36.3386 19.4605 35.2263 19.6703 34.5957C19.8121 34.1697 19.9722 33.5155 20.0646 32.984C20.0993 32.7848 20.1023 32.7825 20.2927 32.813C20.3989 32.83 20.8216 32.8599 21.2321 32.8795Z" stroke="#3C2C25" stroke-width="0.15" mask="url(#path-1-outside-1_81_2414)"/>
<path d="M50.999 21.6075H46.3865V19.2H58.4465V21.6075H53.8115V34.5H50.999V21.6075ZM66.5216 23.07C67.8116 23.07 68.8316 23.49 69.5816 24.33C70.3316 25.155 70.7066 26.28 70.7066 27.705V34.5H68.0066V28.0875C68.0066 27.1725 67.8041 26.4825 67.3991 26.0175C67.0091 25.5375 66.4241 25.2975 65.6441 25.2975C64.8191 25.2975 64.1891 25.5825 63.7541 26.1525C63.3191 26.7075 63.1016 27.525 63.1016 28.605V34.5H60.4016V18.3H63.1016V25.185C63.4016 24.51 63.8441 23.9925 64.4291 23.6325C65.0141 23.2575 65.7116 23.07 66.5216 23.07ZM83.8986 28.65C83.8986 28.995 83.8686 29.3475 83.8086 29.7075H75.3711C75.4461 30.6375 75.7536 31.38 76.2936 31.935C76.8486 32.475 77.5686 32.745 78.4536 32.745C79.1436 32.745 79.7361 32.5725 80.2311 32.2275C80.7261 31.8825 81.0411 31.41 81.1761 30.81L83.4936 31.4175C83.3886 32.0775 83.1036 32.67 82.6386 33.195C82.1736 33.72 81.5736 34.1325 80.8386 34.4325C80.1186 34.7175 79.3236 34.86 78.4536 34.86C77.2986 34.86 76.2786 34.6125 75.3936 34.1175C74.5236 33.6225 73.8411 32.925 73.3461 32.025C72.8661 31.125 72.6261 30.09 72.6261 28.92C72.6261 27.795 72.8736 26.7825 73.3686 25.8825C73.8636 24.9675 74.5461 24.255 75.4161 23.745C76.2861 23.235 77.2686 22.98 78.3636 22.98C79.4286 22.98 80.3811 23.2275 81.2211 23.7225C82.0611 24.2025 82.7136 24.87 83.1786 25.725C83.6586 26.58 83.8986 27.555 83.8986 28.65ZM81.1986 27.9075C81.1986 27.0525 80.9286 26.3625 80.3886 25.8375C79.8636 25.3125 79.1661 25.05 78.2961 25.05C77.5011 25.05 76.8411 25.305 76.3161 25.815C75.7911 26.325 75.4761 27.0225 75.3711 27.9075H81.1986ZM90.9509 19.2H94.1234L101.571 30.63L101.503 19.2H104.316V34.5H101.098L93.6959 23.07L93.7634 34.5H90.9509V19.2ZM112.779 34.86C111.669 34.86 110.657 34.5975 109.742 34.0725C108.827 33.5475 108.099 32.835 107.559 31.935C107.034 31.02 106.772 30.015 106.772 28.92C106.772 27.825 107.034 26.8275 107.559 25.9275C108.099 25.0125 108.827 24.2925 109.742 23.7675C110.657 23.2425 111.669 22.98 112.779 22.98C113.874 22.98 114.879 23.2425 115.794 23.7675C116.709 24.2925 117.429 25.0125 117.954 25.9275C118.494 26.8275 118.764 27.825 118.764 28.92C118.764 30.015 118.494 31.02 117.954 31.935C117.429 32.835 116.709 33.5475 115.794 34.0725C114.879 34.5975 113.874 34.86 112.779 34.86ZM112.779 32.52C113.724 32.52 114.504 32.1825 115.119 31.5075C115.734 30.8325 116.042 29.97 116.042 28.92C116.042 27.87 115.734 27.0075 115.119 26.3325C114.504 25.6575 113.724 25.32 112.779 25.32C111.819 25.32 111.032 25.6575 110.417 26.3325C109.802 27.0075 109.494 27.87 109.494 28.92C109.494 29.97 109.802 30.8325 110.417 31.5075C111.032 32.1825 111.819 32.52 112.779 32.52ZM126.292 34.86C125.182 34.86 124.17 34.5975 123.255 34.0725C122.34 33.5475 121.612 32.835 121.072 31.935C120.547 31.02 120.285 30.015 120.285 28.92C120.285 27.825 120.547 26.8275 121.072 25.9275C121.612 25.0125 122.34 24.2925 123.255 23.7675C124.17 23.2425 125.182 22.98 126.292 22.98C127.387 22.98 128.392 23.2425 129.307 23.7675C130.222 24.2925 130.942 25.0125 131.467 25.9275C132.007 26.8275 132.277 27.825 132.277 28.92C132.277 30.015 132.007 31.02 131.467 31.935C130.942 32.835 130.222 33.5475 129.307 34.0725C128.392 34.5975 127.387 34.86 126.292 34.86ZM126.292 32.52C127.237 32.52 128.017 32.1825 128.632 31.5075C129.247 30.8325 129.555 29.97 129.555 28.92C129.555 27.87 129.247 27.0075 128.632 26.3325C128.017 25.6575 127.237 25.32 126.292 25.32C125.332 25.32 124.545 25.6575 123.93 26.3325C123.315 27.0075 123.007 27.87 123.007 28.92C123.007 29.97 123.315 30.8325 123.93 31.5075C124.545 32.1825 125.332 32.52 126.292 32.52ZM140.908 27.615L144.553 34.5H141.673L139.018 29.325L137.06 31.08V34.5H134.405V18.3H137.06V27.885L142.078 23.34H145.678L140.908 27.615Z" fill="#3C2C25"/>
</svg>
