<svg width="304" height="101" viewBox="0 0 304 101" fill="none" xmlns="http://www.w3.org/2000/svg">
<rect width="302.242" height="100" transform="translate(0.878906 0.333496)" fill="#3C2C25"/>
<mask id="path-1-outside-1_59_8201" maskUnits="userSpaceOnUse" x="-0.121094" y="-0.666504" width="75" height="102" fill="black">
<rect fill="white" x="-0.121094" y="-0.666504" width="75" height="102"/>
<path fill-rule="evenodd" clip-rule="evenodd" d="M25.3331 0.496465C21.8427 1.13337 19.0314 3.03049 17.7695 5.60053C16.9082 7.35482 16.9201 7.2567 16.8747 12.8888L16.8344 17.8927L15.8937 18.491C13.7244 19.8706 10.8534 22.3956 9.04554 24.514C4.1436 30.2578 1.50291 36.6264 0.988602 43.9455C0.84459 45.9936 0.841439 64.525 0.98469 66.4629C1.66258 75.6344 5.91869 84.2975 12.8476 90.6092C18.8661 96.0916 25.8846 99.2639 34.0798 100.206C35.7578 100.399 39.9347 100.368 41.698 100.15C49.8202 99.1445 56.5916 95.9899 62.484 90.466C68.4995 84.8267 72.367 77.7059 73.6894 69.8351C74.1242 67.2476 74.1488 66.3231 74.1065 54.1164C74.0666 42.5958 74.0612 42.3407 73.8258 40.954C72.968 35.8988 71.1669 31.3992 68.2906 27.125C65.8386 23.4816 61.7725 19.5785 58.7883 18.0037C58.2602 17.7251 57.8281 17.4855 57.8281 17.4714C57.8281 17.4572 58.409 17.4664 59.1188 17.4917C60.5838 17.544 61.0773 17.4344 61.3788 16.9897C61.5664 16.7131 61.5796 16.2545 61.6079 9.0495C61.6408 0.646906 61.6597 0.907 60.9888 0.51028C60.6962 0.33732 59.5007 0.325463 43.4102 0.336449C29.3452 0.346022 25.995 0.375719 25.3331 0.496465ZM58.9974 8.9417L59.0256 15.0024L41.879 15.0408C26.2917 15.0757 24.6486 15.0959 23.8088 15.2637C22.5921 15.5065 20.8255 16.0259 20.0532 16.3677C19.7127 16.5184 19.4281 16.6417 19.4206 16.6417C19.4131 16.6417 19.4206 14.8183 19.4374 12.5896C19.467 8.6554 19.4756 8.51224 19.7319 7.66735C20.3952 5.48054 22.1078 3.94501 24.7326 3.18376C25.0315 3.09707 25.863 2.98927 26.5803 2.94412C27.2976 2.89909 34.8786 2.86645 43.427 2.87157L58.9694 2.88103L58.9974 8.9417ZM51.7959 17.7679C55.5505 18.4916 58.9158 20.4468 62.3974 23.9273C64.1622 25.6915 65.0561 26.7656 66.293 28.608C68.7351 32.2456 70.4015 36.2513 71.1871 40.3729C71.6945 43.0343 71.7403 44.2188 71.7391 54.6483C71.7378 66.4143 71.6733 67.6389 70.8565 71.396C69.1594 79.2013 64.3979 86.4275 57.7195 91.3329C54.3682 93.7945 50.221 95.7699 46.3615 96.7428C43.184 97.5437 40.8365 97.8355 37.6122 97.8303C29.8795 97.8176 22.9588 95.4829 16.8564 90.828C10.444 85.9367 5.67436 78.415 4.0961 70.7053C3.43985 67.4991 3.45191 67.7515 3.40409 56.2376C3.35942 45.4646 3.40463 43.598 3.76645 41.2832C4.948 33.7238 9.26303 26.6126 15.6361 21.722C16.096 21.3691 16.558 21.0343 16.6625 20.9783C16.8428 20.8818 16.8527 21.2619 16.8527 28.263V35.6496L16.4198 35.7077C14.9255 35.9083 13.5382 37.4601 12.9481 39.5911C12.4164 41.5116 12.4109 44.8744 12.9365 46.7193C13.7551 49.5928 15.7486 51.4345 18.3599 51.7303L19.0265 51.8057L19.0263 56.17L19.0259 60.5344L18.2522 60.9695C17.2685 61.5228 17.0701 61.7716 17.0701 62.4524C17.0701 62.9016 17.1259 63.0429 17.4401 63.3895C17.6434 63.6141 18.0835 63.9447 18.4178 64.1241L19.0257 64.4505L19.0262 70.4272C19.0265 76.9165 19.1145 78.7389 19.5281 80.8219C20.5019 85.7263 23.1816 89.7181 27.1237 92.1365C30.2322 94.0435 34.0975 95.1976 37.4666 95.2246C39.1416 95.238 39.2018 95.1944 39.621 93.6649C40.1547 91.7173 41.0067 90.3631 42.8799 88.4852C43.5992 87.7641 45.0682 86.4675 46.1442 85.6039C49.8249 82.65 51.7343 80.8276 53.377 78.7006C57.2357 73.7048 58.8437 68.6534 59.0736 60.8063C59.1078 59.6397 59.1654 58.0171 59.2017 57.2006L59.2678 55.7162L59.9756 55.6403C61.6564 55.4601 62.9445 54.8284 64.203 53.5668C64.9035 52.8647 65.1814 52.4873 65.5297 51.7658C66.2855 50.1994 66.5951 48.4605 66.4865 46.393C66.3279 43.376 64.9834 41.5916 62.3866 40.9519C61.468 40.7256 58.5023 40.6044 58.175 40.7797C57.667 41.0518 57.6287 41.245 57.505 44.163C57.331 48.2701 56.9773 54.2889 56.8371 55.5305C56.6034 57.5983 56.0878 59.0625 55.1751 60.2497C53.4975 62.4317 51.4352 63.0309 49.1584 61.9977C48.7657 61.8194 47.7312 61.1921 46.8595 60.6035C45.9879 60.0149 44.8589 59.2978 44.3508 59.0097C42.3288 57.8639 39.9116 57.0428 37.3948 56.6467C35.4287 56.3374 31.6858 56.3132 29.6779 56.5969C27.1585 56.9528 24.4975 57.7714 22.3686 58.8453L21.5263 59.2702V48.6708V38.0713H26.8569H32.1876L32.1302 38.4249C32.0986 38.6194 31.9979 39.9043 31.9061 41.2803C31.8145 42.6564 31.6153 45.618 31.4636 47.8615C31.3118 50.1051 31.1592 52.6261 31.1244 53.4637L31.0612 54.9866L31.3914 55.3402L31.7215 55.6937H35.7453H39.7693L40.0999 55.4152C40.7242 54.8895 40.6206 53.7766 39.9223 53.5058C39.7323 53.4322 38.5207 53.3951 36.6068 53.4044L33.5907 53.4192V53.1185C33.5907 52.5203 34.3599 40.5812 34.5166 38.7473C34.7057 36.5345 34.8886 35.5739 35.3866 34.1794C36.3558 31.4656 37.9104 29.6932 40.3687 28.4995C42.6732 27.3804 45.4526 26.9606 48.2664 27.3066C52.2691 27.7987 55.1389 29.8971 55.9214 32.9038C56.0998 33.5893 56.1496 34.9753 55.999 35.0684C55.9495 35.099 55.5216 34.8655 55.048 34.5495C53.9209 33.7971 52.526 33.0547 51.5786 32.7031C50.1644 32.178 49.4097 32.0505 47.7745 32.0604C45.9244 32.0715 44.9807 32.2853 43.4951 33.0305C41.7502 33.9057 40.2608 35.5679 39.6118 37.3643C39.3814 38.0018 39.3652 38.0185 38.9113 38.081C37.9818 38.2091 37.5428 39.1767 38.0421 39.9963C38.1903 40.2394 38.3657 40.3649 38.6257 40.4137C38.9816 40.4806 39.0003 40.5079 39.065 41.0588C39.3725 43.6778 41.2612 46.1657 43.7161 47.1855C46.9194 48.5163 50.2296 47.8076 52.2277 45.3633C53.2714 44.0864 53.8695 42.5308 53.9898 40.7801L54.0541 39.8447L54.4466 39.7086C54.6626 39.6337 55.168 39.3802 55.5699 39.1451C58.8074 37.2518 59.4097 32.9878 56.9519 29.3599C54.7566 26.1195 50.1902 24.3754 45.0029 24.7962C38.4642 25.3265 34.0646 28.9212 32.5453 34.9746L32.3687 35.6782H25.887H19.4053L19.4246 27.5469C19.4353 23.0746 19.4479 19.3857 19.4526 19.3491C19.4836 19.1101 22.2273 18.1146 23.6144 17.8391C24.9789 17.5681 26.5034 17.5392 38.4273 17.5589C49.6806 17.5774 50.9075 17.5967 51.7959 17.7679ZM50.1656 34.7975C50.5841 34.9227 51.3315 35.2195 51.8265 35.457C52.863 35.9545 54.3915 36.9863 54.2697 37.1064C54.0733 37.2998 52.1891 37.7478 51.1162 37.8562C50.4307 37.9254 48.2951 37.9605 45.9468 37.9411L41.9453 37.9082L42.4881 37.1346C43.3686 35.88 44.4031 35.1418 45.9268 34.6807C46.8291 34.4076 49.0691 34.4694 50.1656 34.7975ZM19.0265 43.7418V49.4123L18.5662 49.3386C17.3943 49.151 16.297 48.3596 15.7668 47.3196C15.2571 46.3196 15.0902 45.3302 15.0875 43.2928C15.0833 39.988 15.5989 38.5866 16.9614 38.1992C17.1706 38.1397 17.7209 38.0866 18.1842 38.0811L19.0265 38.0713V43.7418ZM51.5242 40.6767C51.5242 42.3341 50.2587 44.3181 48.7768 44.9837C47.8173 45.4146 46.3284 45.4863 45.2359 45.1542C43.3438 44.5791 41.8195 42.8312 41.5605 40.94L41.4957 40.4669L45.9937 40.4373C48.4676 40.421 50.7241 40.396 51.008 40.3817C51.513 40.3563 51.5242 40.3627 51.5242 40.6767ZM61.3017 43.2397C62.5974 43.3851 63.3627 43.9532 63.8157 45.1059C64.0349 45.664 64.0642 45.9236 64.0589 47.2632C64.0497 49.6169 63.6545 50.827 62.5329 51.9364C61.6942 52.7663 60.5899 53.2964 59.6943 53.2993L59.3325 53.3005L59.3978 52.6207C59.5085 51.4703 59.773 47.0349 59.844 45.142C59.8809 44.1549 59.9309 43.2836 59.9551 43.206C59.9842 43.1125 60.119 43.0832 60.3537 43.1189C60.5488 43.1488 60.9754 43.2031 61.3017 43.2397ZM36.7426 58.907C38.7887 59.206 40.7447 59.8178 42.5575 60.7256C43.5685 61.232 44.1251 61.5782 46.3413 63.0797C46.8085 63.3962 47.3888 63.7678 47.6309 63.9055L48.0712 64.1558L47.7168 64.2337C46.5224 64.4962 42.8074 64.4935 40.953 64.2288C39.3894 64.0057 38.6467 63.7645 36.537 62.795C34.4225 61.8232 34.2866 61.8155 32.7589 62.5803C31.4741 63.2234 30.0428 63.7835 28.9171 64.0837C28.1436 64.2898 27.7191 64.3296 26.3086 64.3277C24.7881 64.3257 24.5286 64.2964 23.6457 64.0282C23.1077 63.8647 22.423 63.5935 22.1241 63.4257C21.5938 63.1277 21.5799 63.1069 21.5479 62.5665C21.516 62.0247 21.5249 62.0066 21.9561 61.7341C24.4567 60.1542 28.4644 58.9654 32.1777 58.7018C33.1483 58.6329 35.6303 58.7445 36.7426 58.907ZM56.5174 63.6348C56.0913 69.0935 54.3182 73.7153 51.122 77.6975C49.5299 79.6811 48.1459 80.9877 44.8562 83.613C41.4106 86.3628 39.4391 88.4095 38.4024 90.3129C38.2476 90.597 38.0891 90.8296 38.0501 90.8296C37.9472 90.8296 36.59 88.3943 36.2427 87.5863L35.9473 86.8994L36.5352 86.3953C38.3603 84.8301 40.5928 82.4304 41.9232 80.6043C44.3052 77.3346 46.1608 72.6135 46.9304 67.8652L47.1224 66.6807L47.5401 66.6806C48.1822 66.6804 49.9906 66.2818 51.0556 65.9058C52.9114 65.2506 54.4704 64.3195 55.8174 63.0621C56.2359 62.6715 56.5865 62.3592 56.5966 62.368C56.6067 62.3769 56.5711 62.9469 56.5174 63.6348ZM35.8478 65.0897C36.4894 65.4113 37.2955 65.7629 37.6393 65.871C37.9831 65.9791 38.2643 66.1266 38.2643 66.1988C38.2643 66.4837 37.9133 68.1907 37.7067 68.9105C36.9724 71.469 35.884 73.402 34.3313 74.905C33.6851 75.5305 32.6076 76.3979 32.5541 76.3358C32.5042 76.2779 32.0719 73.3334 31.9669 72.337C31.7783 70.5468 31.6118 65.898 31.732 65.7777C31.8691 65.6405 34.3579 64.5191 34.5436 64.511C34.6192 64.5076 35.2061 64.768 35.8478 65.0897ZM23.3504 66.4621L23.8158 66.582L23.8013 72.9676C23.7919 77.0661 23.8301 79.7235 23.9078 80.3867C24.2441 83.2557 24.7364 85.3611 25.5072 87.2258C25.7143 87.7268 25.8659 88.1544 25.8441 88.1761C25.8222 88.198 25.3794 87.6414 24.8599 86.9392C23.5479 85.1658 22.6435 83.2901 22.12 81.257C21.6277 79.3454 21.6105 79.0709 21.5592 72.3159L21.5099 65.8224L22.1974 66.0824C22.5756 66.2253 23.0944 66.3962 23.3504 66.4621ZM29.2866 67.9042C29.6255 75.0077 30.9067 81.0427 33.2877 86.7504C33.934 88.3 35.0681 90.4902 35.8669 91.7316C36.2439 92.3175 36.5341 92.8125 36.5117 92.8317C36.4195 92.9106 34.8258 92.6755 33.9991 92.461C32.2883 92.0172 31.2758 91.4529 30.0998 90.288C28.5347 88.7377 27.3586 86.2609 26.7539 83.2418C26.258 80.7663 26.1497 79.1792 26.154 74.4582C26.1563 72.0052 26.197 69.2791 26.2444 68.4002L26.3305 66.8022L26.9445 66.7377C27.4245 66.6872 28.6868 66.4762 29.1464 66.3695C29.1828 66.3611 29.246 67.0517 29.2866 67.9042ZM43.0291 66.7492L44.5838 66.8235L44.5112 67.3774C44.3626 68.5109 43.8838 70.6899 43.5179 71.8982C42.1774 76.326 40.2522 79.4975 36.8136 82.9427L34.9682 84.7917L34.4929 83.3779C33.999 81.9088 33.1559 79.0855 33.1559 78.9005C33.1559 78.8421 33.573 78.5108 34.0826 78.1643C35.1784 77.4193 36.6972 75.9585 37.4835 74.8933C38.1757 73.9557 39.3382 71.6382 39.7754 70.3246C40.0708 69.4369 40.4042 68.074 40.5968 66.9669C40.6691 66.5519 40.6754 66.5471 41.0721 66.6106C41.2933 66.646 42.1739 66.7083 43.0291 66.7492Z"/>
</mask>
<path fill-rule="evenodd" clip-rule="evenodd" d="M25.3331 0.496465C21.8427 1.13337 19.0314 3.03049 17.7695 5.60053C16.9082 7.35482 16.9201 7.2567 16.8747 12.8888L16.8344 17.8927L15.8937 18.491C13.7244 19.8706 10.8534 22.3956 9.04554 24.514C4.1436 30.2578 1.50291 36.6264 0.988602 43.9455C0.84459 45.9936 0.841439 64.525 0.98469 66.4629C1.66258 75.6344 5.91869 84.2975 12.8476 90.6092C18.8661 96.0916 25.8846 99.2639 34.0798 100.206C35.7578 100.399 39.9347 100.368 41.698 100.15C49.8202 99.1445 56.5916 95.9899 62.484 90.466C68.4995 84.8267 72.367 77.7059 73.6894 69.8351C74.1242 67.2476 74.1488 66.3231 74.1065 54.1164C74.0666 42.5958 74.0612 42.3407 73.8258 40.954C72.968 35.8988 71.1669 31.3992 68.2906 27.125C65.8386 23.4816 61.7725 19.5785 58.7883 18.0037C58.2602 17.7251 57.8281 17.4855 57.8281 17.4714C57.8281 17.4572 58.409 17.4664 59.1188 17.4917C60.5838 17.544 61.0773 17.4344 61.3788 16.9897C61.5664 16.7131 61.5796 16.2545 61.6079 9.0495C61.6408 0.646906 61.6597 0.907 60.9888 0.51028C60.6962 0.33732 59.5007 0.325463 43.4102 0.336449C29.3452 0.346022 25.995 0.375719 25.3331 0.496465ZM58.9974 8.9417L59.0256 15.0024L41.879 15.0408C26.2917 15.0757 24.6486 15.0959 23.8088 15.2637C22.5921 15.5065 20.8255 16.0259 20.0532 16.3677C19.7127 16.5184 19.4281 16.6417 19.4206 16.6417C19.4131 16.6417 19.4206 14.8183 19.4374 12.5896C19.467 8.6554 19.4756 8.51224 19.7319 7.66735C20.3952 5.48054 22.1078 3.94501 24.7326 3.18376C25.0315 3.09707 25.863 2.98927 26.5803 2.94412C27.2976 2.89909 34.8786 2.86645 43.427 2.87157L58.9694 2.88103L58.9974 8.9417ZM51.7959 17.7679C55.5505 18.4916 58.9158 20.4468 62.3974 23.9273C64.1622 25.6915 65.0561 26.7656 66.293 28.608C68.7351 32.2456 70.4015 36.2513 71.1871 40.3729C71.6945 43.0343 71.7403 44.2188 71.7391 54.6483C71.7378 66.4143 71.6733 67.6389 70.8565 71.396C69.1594 79.2013 64.3979 86.4275 57.7195 91.3329C54.3682 93.7945 50.221 95.7699 46.3615 96.7428C43.184 97.5437 40.8365 97.8355 37.6122 97.8303C29.8795 97.8176 22.9588 95.4829 16.8564 90.828C10.444 85.9367 5.67436 78.415 4.0961 70.7053C3.43985 67.4991 3.45191 67.7515 3.40409 56.2376C3.35942 45.4646 3.40463 43.598 3.76645 41.2832C4.948 33.7238 9.26303 26.6126 15.6361 21.722C16.096 21.3691 16.558 21.0343 16.6625 20.9783C16.8428 20.8818 16.8527 21.2619 16.8527 28.263V35.6496L16.4198 35.7077C14.9255 35.9083 13.5382 37.4601 12.9481 39.5911C12.4164 41.5116 12.4109 44.8744 12.9365 46.7193C13.7551 49.5928 15.7486 51.4345 18.3599 51.7303L19.0265 51.8057L19.0263 56.17L19.0259 60.5344L18.2522 60.9695C17.2685 61.5228 17.0701 61.7716 17.0701 62.4524C17.0701 62.9016 17.1259 63.0429 17.4401 63.3895C17.6434 63.6141 18.0835 63.9447 18.4178 64.1241L19.0257 64.4505L19.0262 70.4272C19.0265 76.9165 19.1145 78.7389 19.5281 80.8219C20.5019 85.7263 23.1816 89.7181 27.1237 92.1365C30.2322 94.0435 34.0975 95.1976 37.4666 95.2246C39.1416 95.238 39.2018 95.1944 39.621 93.6649C40.1547 91.7173 41.0067 90.3631 42.8799 88.4852C43.5992 87.7641 45.0682 86.4675 46.1442 85.6039C49.8249 82.65 51.7343 80.8276 53.377 78.7006C57.2357 73.7048 58.8437 68.6534 59.0736 60.8063C59.1078 59.6397 59.1654 58.0171 59.2017 57.2006L59.2678 55.7162L59.9756 55.6403C61.6564 55.4601 62.9445 54.8284 64.203 53.5668C64.9035 52.8647 65.1814 52.4873 65.5297 51.7658C66.2855 50.1994 66.5951 48.4605 66.4865 46.393C66.3279 43.376 64.9834 41.5916 62.3866 40.9519C61.468 40.7256 58.5023 40.6044 58.175 40.7797C57.667 41.0518 57.6287 41.245 57.505 44.163C57.331 48.2701 56.9773 54.2889 56.8371 55.5305C56.6034 57.5983 56.0878 59.0625 55.1751 60.2497C53.4975 62.4317 51.4352 63.0309 49.1584 61.9977C48.7657 61.8194 47.7312 61.1921 46.8595 60.6035C45.9879 60.0149 44.8589 59.2978 44.3508 59.0097C42.3288 57.8639 39.9116 57.0428 37.3948 56.6467C35.4287 56.3374 31.6858 56.3132 29.6779 56.5969C27.1585 56.9528 24.4975 57.7714 22.3686 58.8453L21.5263 59.2702V48.6708V38.0713H26.8569H32.1876L32.1302 38.4249C32.0986 38.6194 31.9979 39.9043 31.9061 41.2803C31.8145 42.6564 31.6153 45.618 31.4636 47.8615C31.3118 50.1051 31.1592 52.6261 31.1244 53.4637L31.0612 54.9866L31.3914 55.3402L31.7215 55.6937H35.7453H39.7693L40.0999 55.4152C40.7242 54.8895 40.6206 53.7766 39.9223 53.5058C39.7323 53.4322 38.5207 53.3951 36.6068 53.4044L33.5907 53.4192V53.1185C33.5907 52.5203 34.3599 40.5812 34.5166 38.7473C34.7057 36.5345 34.8886 35.5739 35.3866 34.1794C36.3558 31.4656 37.9104 29.6932 40.3687 28.4995C42.6732 27.3804 45.4526 26.9606 48.2664 27.3066C52.2691 27.7987 55.1389 29.8971 55.9214 32.9038C56.0998 33.5893 56.1496 34.9753 55.999 35.0684C55.9495 35.099 55.5216 34.8655 55.048 34.5495C53.9209 33.7971 52.526 33.0547 51.5786 32.7031C50.1644 32.178 49.4097 32.0505 47.7745 32.0604C45.9244 32.0715 44.9807 32.2853 43.4951 33.0305C41.7502 33.9057 40.2608 35.5679 39.6118 37.3643C39.3814 38.0018 39.3652 38.0185 38.9113 38.081C37.9818 38.2091 37.5428 39.1767 38.0421 39.9963C38.1903 40.2394 38.3657 40.3649 38.6257 40.4137C38.9816 40.4806 39.0003 40.5079 39.065 41.0588C39.3725 43.6778 41.2612 46.1657 43.7161 47.1855C46.9194 48.5163 50.2296 47.8076 52.2277 45.3633C53.2714 44.0864 53.8695 42.5308 53.9898 40.7801L54.0541 39.8447L54.4466 39.7086C54.6626 39.6337 55.168 39.3802 55.5699 39.1451C58.8074 37.2518 59.4097 32.9878 56.9519 29.3599C54.7566 26.1195 50.1902 24.3754 45.0029 24.7962C38.4642 25.3265 34.0646 28.9212 32.5453 34.9746L32.3687 35.6782H25.887H19.4053L19.4246 27.5469C19.4353 23.0746 19.4479 19.3857 19.4526 19.3491C19.4836 19.1101 22.2273 18.1146 23.6144 17.8391C24.9789 17.5681 26.5034 17.5392 38.4273 17.5589C49.6806 17.5774 50.9075 17.5967 51.7959 17.7679ZM50.1656 34.7975C50.5841 34.9227 51.3315 35.2195 51.8265 35.457C52.863 35.9545 54.3915 36.9863 54.2697 37.1064C54.0733 37.2998 52.1891 37.7478 51.1162 37.8562C50.4307 37.9254 48.2951 37.9605 45.9468 37.9411L41.9453 37.9082L42.4881 37.1346C43.3686 35.88 44.4031 35.1418 45.9268 34.6807C46.8291 34.4076 49.0691 34.4694 50.1656 34.7975ZM19.0265 43.7418V49.4123L18.5662 49.3386C17.3943 49.151 16.297 48.3596 15.7668 47.3196C15.2571 46.3196 15.0902 45.3302 15.0875 43.2928C15.0833 39.988 15.5989 38.5866 16.9614 38.1992C17.1706 38.1397 17.7209 38.0866 18.1842 38.0811L19.0265 38.0713V43.7418ZM51.5242 40.6767C51.5242 42.3341 50.2587 44.3181 48.7768 44.9837C47.8173 45.4146 46.3284 45.4863 45.2359 45.1542C43.3438 44.5791 41.8195 42.8312 41.5605 40.94L41.4957 40.4669L45.9937 40.4373C48.4676 40.421 50.7241 40.396 51.008 40.3817C51.513 40.3563 51.5242 40.3627 51.5242 40.6767ZM61.3017 43.2397C62.5974 43.3851 63.3627 43.9532 63.8157 45.1059C64.0349 45.664 64.0642 45.9236 64.0589 47.2632C64.0497 49.6169 63.6545 50.827 62.5329 51.9364C61.6942 52.7663 60.5899 53.2964 59.6943 53.2993L59.3325 53.3005L59.3978 52.6207C59.5085 51.4703 59.773 47.0349 59.844 45.142C59.8809 44.1549 59.9309 43.2836 59.9551 43.206C59.9842 43.1125 60.119 43.0832 60.3537 43.1189C60.5488 43.1488 60.9754 43.2031 61.3017 43.2397ZM36.7426 58.907C38.7887 59.206 40.7447 59.8178 42.5575 60.7256C43.5685 61.232 44.1251 61.5782 46.3413 63.0797C46.8085 63.3962 47.3888 63.7678 47.6309 63.9055L48.0712 64.1558L47.7168 64.2337C46.5224 64.4962 42.8074 64.4935 40.953 64.2288C39.3894 64.0057 38.6467 63.7645 36.537 62.795C34.4225 61.8232 34.2866 61.8155 32.7589 62.5803C31.4741 63.2234 30.0428 63.7835 28.9171 64.0837C28.1436 64.2898 27.7191 64.3296 26.3086 64.3277C24.7881 64.3257 24.5286 64.2964 23.6457 64.0282C23.1077 63.8647 22.423 63.5935 22.1241 63.4257C21.5938 63.1277 21.5799 63.1069 21.5479 62.5665C21.516 62.0247 21.5249 62.0066 21.9561 61.7341C24.4567 60.1542 28.4644 58.9654 32.1777 58.7018C33.1483 58.6329 35.6303 58.7445 36.7426 58.907ZM56.5174 63.6348C56.0913 69.0935 54.3182 73.7153 51.122 77.6975C49.5299 79.6811 48.1459 80.9877 44.8562 83.613C41.4106 86.3628 39.4391 88.4095 38.4024 90.3129C38.2476 90.597 38.0891 90.8296 38.0501 90.8296C37.9472 90.8296 36.59 88.3943 36.2427 87.5863L35.9473 86.8994L36.5352 86.3953C38.3603 84.8301 40.5928 82.4304 41.9232 80.6043C44.3052 77.3346 46.1608 72.6135 46.9304 67.8652L47.1224 66.6807L47.5401 66.6806C48.1822 66.6804 49.9906 66.2818 51.0556 65.9058C52.9114 65.2506 54.4704 64.3195 55.8174 63.0621C56.2359 62.6715 56.5865 62.3592 56.5966 62.368C56.6067 62.3769 56.5711 62.9469 56.5174 63.6348ZM35.8478 65.0897C36.4894 65.4113 37.2955 65.7629 37.6393 65.871C37.9831 65.9791 38.2643 66.1266 38.2643 66.1988C38.2643 66.4837 37.9133 68.1907 37.7067 68.9105C36.9724 71.469 35.884 73.402 34.3313 74.905C33.6851 75.5305 32.6076 76.3979 32.5541 76.3358C32.5042 76.2779 32.0719 73.3334 31.9669 72.337C31.7783 70.5468 31.6118 65.898 31.732 65.7777C31.8691 65.6405 34.3579 64.5191 34.5436 64.511C34.6192 64.5076 35.2061 64.768 35.8478 65.0897ZM23.3504 66.4621L23.8158 66.582L23.8013 72.9676C23.7919 77.0661 23.8301 79.7235 23.9078 80.3867C24.2441 83.2557 24.7364 85.3611 25.5072 87.2258C25.7143 87.7268 25.8659 88.1544 25.8441 88.1761C25.8222 88.198 25.3794 87.6414 24.8599 86.9392C23.5479 85.1658 22.6435 83.2901 22.12 81.257C21.6277 79.3454 21.6105 79.0709 21.5592 72.3159L21.5099 65.8224L22.1974 66.0824C22.5756 66.2253 23.0944 66.3962 23.3504 66.4621ZM29.2866 67.9042C29.6255 75.0077 30.9067 81.0427 33.2877 86.7504C33.934 88.3 35.0681 90.4902 35.8669 91.7316C36.2439 92.3175 36.5341 92.8125 36.5117 92.8317C36.4195 92.9106 34.8258 92.6755 33.9991 92.461C32.2883 92.0172 31.2758 91.4529 30.0998 90.288C28.5347 88.7377 27.3586 86.2609 26.7539 83.2418C26.258 80.7663 26.1497 79.1792 26.154 74.4582C26.1563 72.0052 26.197 69.2791 26.2444 68.4002L26.3305 66.8022L26.9445 66.7377C27.4245 66.6872 28.6868 66.4762 29.1464 66.3695C29.1828 66.3611 29.246 67.0517 29.2866 67.9042ZM43.0291 66.7492L44.5838 66.8235L44.5112 67.3774C44.3626 68.5109 43.8838 70.6899 43.5179 71.8982C42.1774 76.326 40.2522 79.4975 36.8136 82.9427L34.9682 84.7917L34.4929 83.3779C33.999 81.9088 33.1559 79.0855 33.1559 78.9005C33.1559 78.8421 33.573 78.5108 34.0826 78.1643C35.1784 77.4193 36.6972 75.9585 37.4835 74.8933C38.1757 73.9557 39.3382 71.6382 39.7754 70.3246C40.0708 69.4369 40.4042 68.074 40.5968 66.9669C40.6691 66.5519 40.6754 66.5471 41.0721 66.6106C41.2933 66.646 42.1739 66.7083 43.0291 66.7492Z" fill="#F7F3ED"/>
<path fill-rule="evenodd" clip-rule="evenodd" d="M25.3331 0.496465C21.8427 1.13337 19.0314 3.03049 17.7695 5.60053C16.9082 7.35482 16.9201 7.2567 16.8747 12.8888L16.8344 17.8927L15.8937 18.491C13.7244 19.8706 10.8534 22.3956 9.04554 24.514C4.1436 30.2578 1.50291 36.6264 0.988602 43.9455C0.84459 45.9936 0.841439 64.525 0.98469 66.4629C1.66258 75.6344 5.91869 84.2975 12.8476 90.6092C18.8661 96.0916 25.8846 99.2639 34.0798 100.206C35.7578 100.399 39.9347 100.368 41.698 100.15C49.8202 99.1445 56.5916 95.9899 62.484 90.466C68.4995 84.8267 72.367 77.7059 73.6894 69.8351C74.1242 67.2476 74.1488 66.3231 74.1065 54.1164C74.0666 42.5958 74.0612 42.3407 73.8258 40.954C72.968 35.8988 71.1669 31.3992 68.2906 27.125C65.8386 23.4816 61.7725 19.5785 58.7883 18.0037C58.2602 17.7251 57.8281 17.4855 57.8281 17.4714C57.8281 17.4572 58.409 17.4664 59.1188 17.4917C60.5838 17.544 61.0773 17.4344 61.3788 16.9897C61.5664 16.7131 61.5796 16.2545 61.6079 9.0495C61.6408 0.646906 61.6597 0.907 60.9888 0.51028C60.6962 0.33732 59.5007 0.325463 43.4102 0.336449C29.3452 0.346022 25.995 0.375719 25.3331 0.496465ZM58.9974 8.9417L59.0256 15.0024L41.879 15.0408C26.2917 15.0757 24.6486 15.0959 23.8088 15.2637C22.5921 15.5065 20.8255 16.0259 20.0532 16.3677C19.7127 16.5184 19.4281 16.6417 19.4206 16.6417C19.4131 16.6417 19.4206 14.8183 19.4374 12.5896C19.467 8.6554 19.4756 8.51224 19.7319 7.66735C20.3952 5.48054 22.1078 3.94501 24.7326 3.18376C25.0315 3.09707 25.863 2.98927 26.5803 2.94412C27.2976 2.89909 34.8786 2.86645 43.427 2.87157L58.9694 2.88103L58.9974 8.9417ZM51.7959 17.7679C55.5505 18.4916 58.9158 20.4468 62.3974 23.9273C64.1622 25.6915 65.0561 26.7656 66.293 28.608C68.7351 32.2456 70.4015 36.2513 71.1871 40.3729C71.6945 43.0343 71.7403 44.2188 71.7391 54.6483C71.7378 66.4143 71.6733 67.6389 70.8565 71.396C69.1594 79.2013 64.3979 86.4275 57.7195 91.3329C54.3682 93.7945 50.221 95.7699 46.3615 96.7428C43.184 97.5437 40.8365 97.8355 37.6122 97.8303C29.8795 97.8176 22.9588 95.4829 16.8564 90.828C10.444 85.9367 5.67436 78.415 4.0961 70.7053C3.43985 67.4991 3.45191 67.7515 3.40409 56.2376C3.35942 45.4646 3.40463 43.598 3.76645 41.2832C4.948 33.7238 9.26303 26.6126 15.6361 21.722C16.096 21.3691 16.558 21.0343 16.6625 20.9783C16.8428 20.8818 16.8527 21.2619 16.8527 28.263V35.6496L16.4198 35.7077C14.9255 35.9083 13.5382 37.4601 12.9481 39.5911C12.4164 41.5116 12.4109 44.8744 12.9365 46.7193C13.7551 49.5928 15.7486 51.4345 18.3599 51.7303L19.0265 51.8057L19.0263 56.17L19.0259 60.5344L18.2522 60.9695C17.2685 61.5228 17.0701 61.7716 17.0701 62.4524C17.0701 62.9016 17.1259 63.0429 17.4401 63.3895C17.6434 63.6141 18.0835 63.9447 18.4178 64.1241L19.0257 64.4505L19.0262 70.4272C19.0265 76.9165 19.1145 78.7389 19.5281 80.8219C20.5019 85.7263 23.1816 89.7181 27.1237 92.1365C30.2322 94.0435 34.0975 95.1976 37.4666 95.2246C39.1416 95.238 39.2018 95.1944 39.621 93.6649C40.1547 91.7173 41.0067 90.3631 42.8799 88.4852C43.5992 87.7641 45.0682 86.4675 46.1442 85.6039C49.8249 82.65 51.7343 80.8276 53.377 78.7006C57.2357 73.7048 58.8437 68.6534 59.0736 60.8063C59.1078 59.6397 59.1654 58.0171 59.2017 57.2006L59.2678 55.7162L59.9756 55.6403C61.6564 55.4601 62.9445 54.8284 64.203 53.5668C64.9035 52.8647 65.1814 52.4873 65.5297 51.7658C66.2855 50.1994 66.5951 48.4605 66.4865 46.393C66.3279 43.376 64.9834 41.5916 62.3866 40.9519C61.468 40.7256 58.5023 40.6044 58.175 40.7797C57.667 41.0518 57.6287 41.245 57.505 44.163C57.331 48.2701 56.9773 54.2889 56.8371 55.5305C56.6034 57.5983 56.0878 59.0625 55.1751 60.2497C53.4975 62.4317 51.4352 63.0309 49.1584 61.9977C48.7657 61.8194 47.7312 61.1921 46.8595 60.6035C45.9879 60.0149 44.8589 59.2978 44.3508 59.0097C42.3288 57.8639 39.9116 57.0428 37.3948 56.6467C35.4287 56.3374 31.6858 56.3132 29.6779 56.5969C27.1585 56.9528 24.4975 57.7714 22.3686 58.8453L21.5263 59.2702V48.6708V38.0713H26.8569H32.1876L32.1302 38.4249C32.0986 38.6194 31.9979 39.9043 31.9061 41.2803C31.8145 42.6564 31.6153 45.618 31.4636 47.8615C31.3118 50.1051 31.1592 52.6261 31.1244 53.4637L31.0612 54.9866L31.3914 55.3402L31.7215 55.6937H35.7453H39.7693L40.0999 55.4152C40.7242 54.8895 40.6206 53.7766 39.9223 53.5058C39.7323 53.4322 38.5207 53.3951 36.6068 53.4044L33.5907 53.4192V53.1185C33.5907 52.5203 34.3599 40.5812 34.5166 38.7473C34.7057 36.5345 34.8886 35.5739 35.3866 34.1794C36.3558 31.4656 37.9104 29.6932 40.3687 28.4995C42.6732 27.3804 45.4526 26.9606 48.2664 27.3066C52.2691 27.7987 55.1389 29.8971 55.9214 32.9038C56.0998 33.5893 56.1496 34.9753 55.999 35.0684C55.9495 35.099 55.5216 34.8655 55.048 34.5495C53.9209 33.7971 52.526 33.0547 51.5786 32.7031C50.1644 32.178 49.4097 32.0505 47.7745 32.0604C45.9244 32.0715 44.9807 32.2853 43.4951 33.0305C41.7502 33.9057 40.2608 35.5679 39.6118 37.3643C39.3814 38.0018 39.3652 38.0185 38.9113 38.081C37.9818 38.2091 37.5428 39.1767 38.0421 39.9963C38.1903 40.2394 38.3657 40.3649 38.6257 40.4137C38.9816 40.4806 39.0003 40.5079 39.065 41.0588C39.3725 43.6778 41.2612 46.1657 43.7161 47.1855C46.9194 48.5163 50.2296 47.8076 52.2277 45.3633C53.2714 44.0864 53.8695 42.5308 53.9898 40.7801L54.0541 39.8447L54.4466 39.7086C54.6626 39.6337 55.168 39.3802 55.5699 39.1451C58.8074 37.2518 59.4097 32.9878 56.9519 29.3599C54.7566 26.1195 50.1902 24.3754 45.0029 24.7962C38.4642 25.3265 34.0646 28.9212 32.5453 34.9746L32.3687 35.6782H25.887H19.4053L19.4246 27.5469C19.4353 23.0746 19.4479 19.3857 19.4526 19.3491C19.4836 19.1101 22.2273 18.1146 23.6144 17.8391C24.9789 17.5681 26.5034 17.5392 38.4273 17.5589C49.6806 17.5774 50.9075 17.5967 51.7959 17.7679ZM50.1656 34.7975C50.5841 34.9227 51.3315 35.2195 51.8265 35.457C52.863 35.9545 54.3915 36.9863 54.2697 37.1064C54.0733 37.2998 52.1891 37.7478 51.1162 37.8562C50.4307 37.9254 48.2951 37.9605 45.9468 37.9411L41.9453 37.9082L42.4881 37.1346C43.3686 35.88 44.4031 35.1418 45.9268 34.6807C46.8291 34.4076 49.0691 34.4694 50.1656 34.7975ZM19.0265 43.7418V49.4123L18.5662 49.3386C17.3943 49.151 16.297 48.3596 15.7668 47.3196C15.2571 46.3196 15.0902 45.3302 15.0875 43.2928C15.0833 39.988 15.5989 38.5866 16.9614 38.1992C17.1706 38.1397 17.7209 38.0866 18.1842 38.0811L19.0265 38.0713V43.7418ZM51.5242 40.6767C51.5242 42.3341 50.2587 44.3181 48.7768 44.9837C47.8173 45.4146 46.3284 45.4863 45.2359 45.1542C43.3438 44.5791 41.8195 42.8312 41.5605 40.94L41.4957 40.4669L45.9937 40.4373C48.4676 40.421 50.7241 40.396 51.008 40.3817C51.513 40.3563 51.5242 40.3627 51.5242 40.6767ZM61.3017 43.2397C62.5974 43.3851 63.3627 43.9532 63.8157 45.1059C64.0349 45.664 64.0642 45.9236 64.0589 47.2632C64.0497 49.6169 63.6545 50.827 62.5329 51.9364C61.6942 52.7663 60.5899 53.2964 59.6943 53.2993L59.3325 53.3005L59.3978 52.6207C59.5085 51.4703 59.773 47.0349 59.844 45.142C59.8809 44.1549 59.9309 43.2836 59.9551 43.206C59.9842 43.1125 60.119 43.0832 60.3537 43.1189C60.5488 43.1488 60.9754 43.2031 61.3017 43.2397ZM36.7426 58.907C38.7887 59.206 40.7447 59.8178 42.5575 60.7256C43.5685 61.232 44.1251 61.5782 46.3413 63.0797C46.8085 63.3962 47.3888 63.7678 47.6309 63.9055L48.0712 64.1558L47.7168 64.2337C46.5224 64.4962 42.8074 64.4935 40.953 64.2288C39.3894 64.0057 38.6467 63.7645 36.537 62.795C34.4225 61.8232 34.2866 61.8155 32.7589 62.5803C31.4741 63.2234 30.0428 63.7835 28.9171 64.0837C28.1436 64.2898 27.7191 64.3296 26.3086 64.3277C24.7881 64.3257 24.5286 64.2964 23.6457 64.0282C23.1077 63.8647 22.423 63.5935 22.1241 63.4257C21.5938 63.1277 21.5799 63.1069 21.5479 62.5665C21.516 62.0247 21.5249 62.0066 21.9561 61.7341C24.4567 60.1542 28.4644 58.9654 32.1777 58.7018C33.1483 58.6329 35.6303 58.7445 36.7426 58.907ZM56.5174 63.6348C56.0913 69.0935 54.3182 73.7153 51.122 77.6975C49.5299 79.6811 48.1459 80.9877 44.8562 83.613C41.4106 86.3628 39.4391 88.4095 38.4024 90.3129C38.2476 90.597 38.0891 90.8296 38.0501 90.8296C37.9472 90.8296 36.59 88.3943 36.2427 87.5863L35.9473 86.8994L36.5352 86.3953C38.3603 84.8301 40.5928 82.4304 41.9232 80.6043C44.3052 77.3346 46.1608 72.6135 46.9304 67.8652L47.1224 66.6807L47.5401 66.6806C48.1822 66.6804 49.9906 66.2818 51.0556 65.9058C52.9114 65.2506 54.4704 64.3195 55.8174 63.0621C56.2359 62.6715 56.5865 62.3592 56.5966 62.368C56.6067 62.3769 56.5711 62.9469 56.5174 63.6348ZM35.8478 65.0897C36.4894 65.4113 37.2955 65.7629 37.6393 65.871C37.9831 65.9791 38.2643 66.1266 38.2643 66.1988C38.2643 66.4837 37.9133 68.1907 37.7067 68.9105C36.9724 71.469 35.884 73.402 34.3313 74.905C33.6851 75.5305 32.6076 76.3979 32.5541 76.3358C32.5042 76.2779 32.0719 73.3334 31.9669 72.337C31.7783 70.5468 31.6118 65.898 31.732 65.7777C31.8691 65.6405 34.3579 64.5191 34.5436 64.511C34.6192 64.5076 35.2061 64.768 35.8478 65.0897ZM23.3504 66.4621L23.8158 66.582L23.8013 72.9676C23.7919 77.0661 23.8301 79.7235 23.9078 80.3867C24.2441 83.2557 24.7364 85.3611 25.5072 87.2258C25.7143 87.7268 25.8659 88.1544 25.8441 88.1761C25.8222 88.198 25.3794 87.6414 24.8599 86.9392C23.5479 85.1658 22.6435 83.2901 22.12 81.257C21.6277 79.3454 21.6105 79.0709 21.5592 72.3159L21.5099 65.8224L22.1974 66.0824C22.5756 66.2253 23.0944 66.3962 23.3504 66.4621ZM29.2866 67.9042C29.6255 75.0077 30.9067 81.0427 33.2877 86.7504C33.934 88.3 35.0681 90.4902 35.8669 91.7316C36.2439 92.3175 36.5341 92.8125 36.5117 92.8317C36.4195 92.9106 34.8258 92.6755 33.9991 92.461C32.2883 92.0172 31.2758 91.4529 30.0998 90.288C28.5347 88.7377 27.3586 86.2609 26.7539 83.2418C26.258 80.7663 26.1497 79.1792 26.154 74.4582C26.1563 72.0052 26.197 69.2791 26.2444 68.4002L26.3305 66.8022L26.9445 66.7377C27.4245 66.6872 28.6868 66.4762 29.1464 66.3695C29.1828 66.3611 29.246 67.0517 29.2866 67.9042ZM43.0291 66.7492L44.5838 66.8235L44.5112 67.3774C44.3626 68.5109 43.8838 70.6899 43.5179 71.8982C42.1774 76.326 40.2522 79.4975 36.8136 82.9427L34.9682 84.7917L34.4929 83.3779C33.999 81.9088 33.1559 79.0855 33.1559 78.9005C33.1559 78.8421 33.573 78.5108 34.0826 78.1643C35.1784 77.4193 36.6972 75.9585 37.4835 74.8933C38.1757 73.9557 39.3382 71.6382 39.7754 70.3246C40.0708 69.4369 40.4042 68.074 40.5968 66.9669C40.6691 66.5519 40.6754 66.5471 41.0721 66.6106C41.2933 66.646 42.1739 66.7083 43.0291 66.7492Z" stroke="#F7F3ED" stroke-width="0.3125" mask="url(#path-1-outside-1_59_8201)"/>
<path d="M105.377 42.4741H95.7673V37.4585H120.892V42.4741H111.236V69.3335H105.377V42.4741ZM137.715 45.521C140.403 45.521 142.528 46.396 144.09 48.146C145.653 49.8647 146.434 52.2085 146.434 55.1772V69.3335H140.809V55.9741C140.809 54.0679 140.387 52.6304 139.543 51.6616C138.731 50.6616 137.512 50.1616 135.887 50.1616C134.168 50.1616 132.856 50.7554 131.95 51.9429C131.043 53.0991 130.59 54.8022 130.59 57.0522V69.3335H124.965V35.5835H130.59V49.9272C131.215 48.521 132.137 47.4429 133.356 46.6929C134.575 45.9116 136.028 45.521 137.715 45.521ZM173.917 57.146C173.917 57.8647 173.855 58.5991 173.73 59.3491H156.152C156.308 61.2866 156.949 62.8335 158.074 63.9897C159.23 65.1147 160.73 65.6772 162.574 65.6772C164.011 65.6772 165.246 65.3179 166.277 64.5991C167.308 63.8804 167.964 62.896 168.246 61.646L173.074 62.9116C172.855 64.2866 172.261 65.521 171.292 66.6147C170.324 67.7085 169.074 68.5679 167.542 69.1929C166.042 69.7866 164.386 70.0835 162.574 70.0835C160.167 70.0835 158.042 69.5679 156.199 68.5366C154.386 67.5054 152.964 66.0522 151.933 64.1772C150.933 62.3022 150.433 60.146 150.433 57.7085C150.433 55.3647 150.949 53.2554 151.98 51.3804C153.011 49.4741 154.433 47.9897 156.246 46.9272C158.058 45.8647 160.105 45.3335 162.386 45.3335C164.605 45.3335 166.589 45.8491 168.339 46.8804C170.089 47.8804 171.449 49.271 172.417 51.0522C173.417 52.8335 173.917 54.8647 173.917 57.146ZM168.292 55.5991C168.292 53.8179 167.73 52.3804 166.605 51.2866C165.511 50.1929 164.058 49.646 162.246 49.646C160.589 49.646 159.214 50.1772 158.121 51.2397C157.027 52.3022 156.371 53.7554 156.152 55.5991H168.292ZM188.61 37.4585H195.219L210.735 61.271L210.594 37.4585H216.454V69.3335H209.75L194.329 45.521L194.469 69.3335H188.61V37.4585ZM234.085 70.0835C231.773 70.0835 229.663 69.5366 227.757 68.4429C225.851 67.3491 224.335 65.8647 223.21 63.9897C222.116 62.0835 221.57 59.9897 221.57 57.7085C221.57 55.4272 222.116 53.3491 223.21 51.4741C224.335 49.5679 225.851 48.0679 227.757 46.9741C229.663 45.8804 231.773 45.3335 234.085 45.3335C236.366 45.3335 238.46 45.8804 240.366 46.9741C242.273 48.0679 243.773 49.5679 244.866 51.4741C245.991 53.3491 246.554 55.4272 246.554 57.7085C246.554 59.9897 245.991 62.0835 244.866 63.9897C243.773 65.8647 242.273 67.3491 240.366 68.4429C238.46 69.5366 236.366 70.0835 234.085 70.0835ZM234.085 65.2085C236.054 65.2085 237.679 64.5054 238.96 63.0991C240.241 61.6929 240.882 59.896 240.882 57.7085C240.882 55.521 240.241 53.7241 238.96 52.3179C237.679 50.9116 236.054 50.2085 234.085 50.2085C232.085 50.2085 230.445 50.9116 229.163 52.3179C227.882 53.7241 227.241 55.521 227.241 57.7085C227.241 59.896 227.882 61.6929 229.163 63.0991C230.445 64.5054 232.085 65.2085 234.085 65.2085ZM262.238 70.0835C259.925 70.0835 257.816 69.5366 255.909 68.4429C254.003 67.3491 252.488 65.8647 251.363 63.9897C250.269 62.0835 249.722 59.9897 249.722 57.7085C249.722 55.4272 250.269 53.3491 251.363 51.4741C252.488 49.5679 254.003 48.0679 255.909 46.9741C257.816 45.8804 259.925 45.3335 262.238 45.3335C264.519 45.3335 266.613 45.8804 268.519 46.9741C270.425 48.0679 271.925 49.5679 273.019 51.4741C274.144 53.3491 274.706 55.4272 274.706 57.7085C274.706 59.9897 274.144 62.0835 273.019 63.9897C271.925 65.8647 270.425 67.3491 268.519 68.4429C266.613 69.5366 264.519 70.0835 262.238 70.0835ZM262.238 65.2085C264.206 65.2085 265.831 64.5054 267.113 63.0991C268.394 61.6929 269.034 59.896 269.034 57.7085C269.034 55.521 268.394 53.7241 267.113 52.3179C265.831 50.9116 264.206 50.2085 262.238 50.2085C260.238 50.2085 258.597 50.9116 257.316 52.3179C256.034 53.7241 255.394 55.521 255.394 57.7085C255.394 59.896 256.034 61.6929 257.316 63.0991C258.597 64.5054 260.238 65.2085 262.238 65.2085ZM292.687 54.9897L300.281 69.3335H294.281L288.749 58.5522L284.671 62.2085V69.3335H279.14V35.5835H284.671V55.5522L295.124 46.0835H302.624L292.687 54.9897Z" fill="#F7F3ED"/>
</svg>
