<svg width="24" height="25" viewBox="0 0 24 25" fill="none" xmlns="http://www.w3.org/2000/svg">
<path d="M20 10.3335C20 15.3265 14.461 20.5265 12.601 22.1325C12.4277 22.2628 12.2168 22.3332 12 22.3332C11.7832 22.3332 11.5723 22.2628 11.399 22.1325C9.539 20.5265 4 15.3265 4 10.3335C4 8.21176 4.84285 6.17693 6.34315 4.67664C7.84344 3.17635 9.87827 2.3335 12 2.3335C14.1217 2.3335 16.1566 3.17635 17.6569 4.67664C19.1571 6.17693 20 8.21176 20 10.3335Z" stroke="white" stroke-width="2" stroke-linecap="round" stroke-linejoin="round"/>
<path d="M12 13.3335C13.6569 13.3335 15 11.9904 15 10.3335C15 8.67664 13.6569 7.3335 12 7.3335C10.3431 7.3335 9 8.67664 9 10.3335C9 11.9904 10.3431 13.3335 12 13.3335Z" stroke="white" stroke-width="2" stroke-linecap="round" stroke-linejoin="round"/>
</svg>
