<svg width="24" height="25" viewBox="0 0 24 25" fill="none" xmlns="http://www.w3.org/2000/svg">
<path d="M13.832 16.9015C14.0385 16.9963 14.2712 17.018 14.4917 16.9629C14.7122 16.9079 14.9073 16.7793 15.045 16.5985L15.4 16.1335C15.5863 15.8851 15.8279 15.6835 16.1056 15.5446C16.3833 15.4058 16.6895 15.3335 17 15.3335H20C20.5304 15.3335 21.0391 15.5442 21.4142 15.9193C21.7893 16.2944 22 16.8031 22 17.3335V20.3335C22 20.8639 21.7893 21.3726 21.4142 21.7477C21.0391 22.1228 20.5304 22.3335 20 22.3335C15.2261 22.3335 10.6477 20.4371 7.27208 17.0614C3.89642 13.6858 2 9.10739 2 4.3335C2 3.80306 2.21071 3.29436 2.58579 2.91928C2.96086 2.54421 3.46957 2.3335 4 2.3335H7C7.53043 2.3335 8.03914 2.54421 8.41421 2.91928C8.78929 3.29436 9 3.80306 9 4.3335V7.3335C9 7.64399 8.92771 7.95021 8.78885 8.22792C8.65 8.50563 8.44839 8.7472 8.2 8.9335L7.732 9.2845C7.54842 9.42467 7.41902 9.62408 7.36579 9.84885C7.31256 10.0736 7.33878 10.3099 7.44 10.5175C8.80668 13.2934 11.0544 15.5383 13.832 16.9015Z" stroke="white" stroke-width="2" stroke-linecap="round" stroke-linejoin="round"/>
</svg>
